<svg xmlns="http://www.w3.org/2000/svg"><defs><font id="novecento_sans_widenormal" horiz-adv-x="668"><font-face ascent="821" descent="-179"/><glyph horiz-adv-x="1000"/><glyph horiz-adv-x="1000"/><glyph horiz-adv-x="1000"/><glyph horiz-adv-x="250"/><glyph horiz-adv-x="250"/><glyph horiz-adv-x="250"/><glyph d="M172 700V162H90v538zM131-10q-25 0-39.5 14.5T77 41t14.5 36T131 91t39.5-14T185 41 170.5 4.5 131-10" horiz-adv-x="262" unicode="!"/><glyph d="m126 700-4-230H54l-5 230zm144 0-5-230h-68l-5 230z" horiz-adv-x="321" unicode="&quot;"/><glyph d="M452 179h95l-19-72h-96L404 0h-69l28 107H203L174 0h-69l29 107H38l20 72h96l55 204h-95l20 71h94l28 106h69l-29-106h161l29 106h69l-29-106h97l-20-71h-96zM277 383l-55-204h161l55 204z" horiz-adv-x="661" unicode="#"/><glyph d="M439 150q0-70-44.5-111.5T274-10v-80h-65v80Q58 6 35 139l71 19q6-49 43-78.5T245 50q53 0 84.5 25.5T361 147q0 14-2.5 26t-9.5 21.5-12 16.5-18.5 13.5-20 10.5-24 9-24 6.5T223 257t-26 6q-31 7-52.5 15.5t-47 25-38.5 45T46 416q0 65 40.5 105T200 569v81h66v-80q138-14 168-135l-70-19q-20 93-128 93-56 0-86-24.5T120 420q0-25 9.5-42.5t30.5-29 41-17.5 56-14q31-7 49-12t46.5-18 45-29 29-44 12.5-64" horiz-adv-x="474" unicode="$"/><glyph d="M163 219Q35 219 35 394q0 176 128 176t128-176q0-175-128-175m314 341L289 0h-56l188 560zM163 274q36 0 54 28t18 92-18 92.5-54 28.5q-73 0-73-121 0-120 73-120M549-7Q421-7 421 169q0 177 128 177t128-177Q677-7 549-7m0 56q36 0 54 28t18 92-18 92.5-54 28.5q-37 0-55-28.5T476 169t18-92 55-28" horiz-adv-x="711" unicode="%"/><glyph d="M495 253v-71q0-95-57.5-144.5T271-12q-106 0-161.5 44.5T54 151q0 57 32 93.5t80 45.5v2q-43 9-74.5 42.5T60 425q0 71 51 108.5T256 571q193 0 236-148l-72-20q-29 102-157 102-123 0-123-86 0-42 32.5-68.5T267 324h317v-70zm-78 1H264q-60 0-95.5-25.5T133 154q0-48 35-74.5T272 53q145 0 145 130z" horiz-adv-x="612" unicode="&amp;"/><glyph d="m126 700-4-230H54l-5 230z" horiz-adv-x="178" unicode="'"/><glyph d="m316 795 23-74q-204-70-204-430t204-430l-23-75Q56-122 56 291q0 412 260 504" horiz-adv-x="356" unicode="("/><glyph d="m41-213-24 74q204 70 204 430T17 721l24 75q259-92 259-505 0-412-259-504" horiz-adv-x="356" unicode=")"/><glyph d="m290 518 76-106-46-33-75 107-75-107-47 33 76 106-122 38 17 53 122-38v129h57V571l122 38 18-53z" horiz-adv-x="489" unicode="*"/><glyph d="M524 254H371V89h-74v165H144v69h153v164h74V323h153z" unicode="+"/><glyph d="M108 0Q87-3 74.5 8.5T62 41q0 20 14.5 33.5T114 88q27 0 42.5-17T172 23q0-37-24.5-74T82-103L49-68q22 8 38.5 28.5T108 0" horiz-adv-x="224" unicode=","/><glyph d="M480 254H100v69h380z" horiz-adv-x="581" unicode="-"/><glyph d="M112-10Q86-10 72 4.5T58 41t14.5 36T112 91t39.5-14T166 41 151.5 4.5 112-10" horiz-adv-x="224" unicode="."/><glyph d="M462 700 109 0H23l355 700z" horiz-adv-x="485" unicode="/"/><glyph d="M260 571q107 0 165-75t58-216-58-216.5T260-12 95 63.5 37 280t58 216 165 75m0-72q-145 0-145-219 0-220 145-220t145 220q0 219-145 219" horiz-adv-x="521" unicode="0"/><glyph d="M184 0v374q0 18 1 43t1 39l1 15h-2l-8-9q-8-9-18-20.5T144 426l-57-58-47 55 148 137h74V0z" horiz-adv-x="342" unicode="1"/><glyph d="M49 0v85l203 156q60 48 86 82t26 73q0 46-32 77t-92 31q-58 0-88.5-28.5T117 403l-73 20q11 76 66.5 112T246 571q94 0 145.5-47T443 398q0-61-33-104T299 194L139 71l1-2q1 0 12.5.5t30.5.5h263V0z" horiz-adv-x="490" unicode="2"/><glyph d="M335 294v-3q51-6 84-41.5t33-94.5q0-75-55.5-121T251-12q-86 0-143.5 43.5T37 149l69 19q10-53 48-82.5T250 56q60 0 92.5 31t32.5 78q0 48-34 72.5T248 262h-56v59h54q59 0 91 23.5t32 68.5q0 44-31.5 68.5T249 506q-117 0-129-102l-71 19q13 77 69 112.5T256 571q94 0 142-39.5T446 426q0-56-32.5-90.5T335 294" horiz-adv-x="489" unicode="3"/><glyph d="M398 0h-78v146H34v71l249 343h115V213h82v-67h-82zm-78 367v129h-3L107 215l2-2h211z" horiz-adv-x="525" unicode="4"/><glyph d="m135 316 2-1q16 18 50 33.5t78 15.5q88 0 141-51t53-134q0-86-57-138.5T253-12q-81 0-137.5 42T44 142l68 17q10-49 47.5-76.5T251 55q59 0 96 33.5t37 90.5q0 58-37 91.5T247 304q-48 0-79-19t-43-45l-63 18 51 302h309v-73H166l-16-93q-3-20-7-39l-6-28.5z" horiz-adv-x="503" unicode="5"/><glyph d="m149 316 3-2q41 48 118 48 83 0 137-50.5T461 181q0-85-59-139T248-12q-94 0-153 53.5T36 188q0 92 78 193l139 179h85zM249 56q62 0 99.5 34.5T387 183q0 56-37 89.5T249 306q-63 0-99.5-33.5T113 183q0-58 37-92.5T249 56" horiz-adv-x="499" unicode="6"/><glyph d="M447 502 164 0H83l225 401q11 20 24.5 41t20.5 32l7 12-2 2q-35-1-73-1H30v73h417z" horiz-adv-x="470" unicode="7"/><glyph d="M37 151q0 62 39 98.5t92 43.5v3q-33 4-69 37.5T63 423q0 63 50.5 105.5T251 571q86 0 137-42.5T439 424q0-57-36-90.5T335 296v-3q52-7 91-43.5t39-98.5q0-72-57-117.5T252-12 95 33 37 151m94 268q0-44 34-68.5t86-24.5q54 1 86.5 27t32.5 67q0 42-32.5 68T251 514q-56 0-88-26.5T131 419m-19-263q0-50 38-78.5T251 49q64 0 101.5 28.5T390 156q0 49-37.5 75.5T251 258t-101.5-27-37.5-75" horiz-adv-x="502" unicode="8"/><glyph d="m355 239-2 2q-45-48-121-48-86 0-139 52T40 377q0 86 60 140t154 54q92 0 153.5-53T469 372q0-63-28-116t-87-121L237 0h-88zM253 503q-60 0-99.5-32T114 375q0-63 39.5-94t99.5-31q61 0 100 32t39 94q0 63-39.5 95T253 503" horiz-adv-x="507" unicode="9"/><glyph d="M112 338q-26 0-40 14.5T58 389t14.5 36 39.5 14 39.5-14.5T166 389q0-23-14-37t-40-14m0-348Q86-10 72 4.5T58 41t14.5 36T112 91t39.5-14T166 41 151.5 4.5 112-10" horiz-adv-x="224" unicode=":"/><glyph d="M112 338q-26 0-40 14.5T58 389t14.5 36 39.5 14 39.5-14.5T166 389q0-23-14-37t-40-14M108 1Q87-2 74.5 9.5T62 41q0 21 14 34t38 13q27 0 42.5-17T172 24q0-37-24.5-74.5T82-102L49-68q22 8 38.5 28.5T108 1" horiz-adv-x="224" unicode=";"/><glyph d="M542 41 91 258v62l451 217v-73L180 290v-2l362-174z" unicode="&lt;"/><glyph d="M524 347H144v69h380zm0-183H144v69h380z" unicode="="/><glyph d="M488 288v2L126 464v73l451-217v-62L126 41v73z" unicode="&gt;"/><glyph d="M229 162v177q119 41 166 79.5t47 91.5q0 52-36 89t-117 37q-75 0-115.5-32.5T115 509l-77 21q22 88 88.5 136T293 714q113 0 172.5-56.5T525 520q0-84-58.5-135T312 299V162zm41-172q-26 0-40.5 14.5T215 41t14.5 36T270 91q25 0 39.5-14T324 41 309.5 4.5 270-10" horiz-adv-x="563" unicode="?"/><glyph d="M494 142h-2q-15-34-48-54.5T367 67q-69 0-116.5 48.5T203 250t44 137 117 51q84 0 113-59h3V262q0 50-27.5 80T379 372q-48 0-73.5-33T280 251t27-86 72-31q46 0 71.5 30t29.5 78v182h77V217q0-45 12.5-66.5T611 129q37 0 57 37.5T688 269q0 136-80.5 220T395 573q-133 0-214.5-86T99 263q0-148 77-228.5T378-46q29 0 55 3.5t46 9 36 12 28.5 14 20 13 14 11.5 7.5 6l46-36q-38-39-109.5-64T380-102q-154 0-248 97T38 264q0 157 100.5 261T394 629q158 0 256.5-102.5T749 268q0-91-38-146T602 67q-40 0-70 21.5T494 142" horiz-adv-x="787" unicode="@"/><glyph d="M543 186H188L110 0H23l298 700h89L708 0h-87zm-31 74-77 183q-10 24-28.5 68T377 581l-11 26h-2q-1-1-68-163l-77-184z" horiz-adv-x="732" unicode="A"/><glyph d="M428 377v-3q61-10 110-54.5T587 195q0-90-62.5-142.5T348 0H77v700h252q94 0 151.5-48.5T538 528q0-63-33-102t-77-49m-270 23h163q60 0 97.5 30.5T456 516q0 52-38 83t-105 31H158zm0-330h186q73 0 115.5 33t42.5 96q0 64-46 100.5T342 336H158z" horiz-adv-x="623" unicode="B"/><glyph d="m646 218 79-21Q685 99 597.5 43T398-13Q242-13 140 88T38 352t102 262.5T398 714q116 0 199.5-54T716 523l-79-22q-12 22-29 42t-45.5 43-72 37-94.5 14q-123 0-199.5-77.5T120 351q0-130 78-208t196-78q85 0 152 41t100 112" horiz-adv-x="769" unicode="C"/><glyph d="M77 700h242q165 0 268.5-96.5T691 347q0-159-102.5-253T326 0H77zm81-624h164q124 0 205.5 70T609 347t-82.5 204T316 624H158z" horiz-adv-x="729" unicode="D"/><glyph d="M77 0v700h471v-76H158V404h304v-76H158V76h392V0z" horiz-adv-x="600" unicode="E"/><glyph d="M544 624H158V390h307v-76H158V0H77v700h467z" horiz-adv-x="583" unicode="F"/><glyph d="M730 0h-73q0 35 .5 58t.5 32v11h-2q-37-42-102.5-78T397-13Q245-13 141.5 88T38 351q0 163 102.5 263T400 714q115 0 199-54t119-137l-80-22q-11 21-27 40.5t-44 43-72 38-97 14.5q-123 0-200.5-77.5T120 352q0-131 79.5-209T402 65q90 0 158.5 39.5T654 190v100H446v76h284z" horiz-adv-x="790" unicode="G"/><glyph d="M544 0v327H158V0H77v700h81V405h386v295h82V0z" horiz-adv-x="702" unicode="H"/><glyph d="M77 0v700h81V0z" horiz-adv-x="235" unicode="I"/><glyph d="M416 700V280q0-142-61-217.5T176-13Q66-13 0 67l46 64q51-66 130-66 82 0 120 54.5T334 284v416z" horiz-adv-x="488" unicode="J"/><glyph d="M282 362 158 233V0H77v700h81V331h2l114 121 233 248h98L342 420 632-1l-96 1z" horiz-adv-x="649" unicode="K"/><glyph d="M77 0v700h81V76h369V0z" horiz-adv-x="564" unicode="L"/><glyph d="M644 0v363l.5 49.5 1 47 .5 42.5.5 34 .5 24v8h-2l-9-18-31.5-59.5L554 399 426 172h-49L250 396q-29 51-51.5 94T167 550l-9 18h-2v-8q0-9 .5-24t.5-34v-42.5l.5-47 .5-49.5V0H77v700h86l238-426h2l239 426h84V0z" horiz-adv-x="802" unicode="M"/><glyph d="M568 0 158 569h-2v-5q0-5 .5-13.5t.5-20.5v-27l.5-31 .5-34.5V0H77v700h82l410-564h2v5q0 5-.5 14t-.5 20.5V202l-.5 30.5-.5 33V700h82V0z" horiz-adv-x="727" unicode="N"/><glyph d="M38 351q0 161 103.5 262T401 714q155 0 259-101.5T764 351q0-161-104-262.5T401-13Q245-13 141.5 88.5T38 351m82 0q0-131 79.5-208.5T401 65q121 0 201 78t80 208-80 208-201 78-201-78-80-208" horiz-adv-x="802" unicode="O"/><glyph d="M77 700h212q124 0 192.5-56T550 482q0-104-69-160.5T289 265H158V0H77zm81-363h133q87 0 132 37t45 107q0 144-177 144H158z" horiz-adv-x="576" unicode="P"/><glyph d="M764 351q0-150-90.5-248.5T442-11v-124h-83v124Q218 4 128 102.5T38 351q0 161 103.5 262T401 714q155 0 259-101.5T764 351M401 65q121 0 201 78t80 208-80 208-201 78-201-78-80-208q0-131 79.5-208.5T401 65" horiz-adv-x="802" unicode="Q"/><glyph d="M467 0 308 275q-15-1-64-1h-86V0H77v700h214q123 0 192-57.5T552 482q0-79-42-127.5T392 290L565 0zM158 342h141q170 0 170 137 0 73-45.5 109.5T294 625H158z" horiz-adv-x="602" unicode="R"/><glyph d="m35 184 78 21q6-72 60-108.5T311 60q78 0 121 31.5t43 93.5q0 21-5.5 38.5T456 253t-22.5 22-27 16-32.5 12-33 8.5-35.5 7T272 325q-36 8-60 15.5t-56.5 23-52 35-34 51.5T55 523q0 91 63 141t174 50q101 0 167.5-43T548 540l-78-21q-30 122-179 122-75 0-114-30.5T138 526q0-27 11-47.5t25.5-33.5 43-23.5T267 406t59-13q38-7 64.5-14t61-23 55.5-36.5 36-55 15-78.5q0-98-64.5-148.5T310-13q-48 0-90 9t-82.5 30T70 87t-35 97" horiz-adv-x="593" unicode="S"/><glyph d="M600 624H359V0h-82v624H37v76h563z" horiz-adv-x="637" unicode="T"/><glyph d="M628 700V292q0-148-72-226.5T348-13 140 65 68 292v408h83V292q0-115 48-171t149-56 150 56 49 171v408z" horiz-adv-x="696" unicode="U"/><glyph d="M392 0h-97L17 700h91l143-367q84-216 93-242h2q13 40 91 237l145 372h88z" horiz-adv-x="686" unicode="V"/><glyph d="M644 0 544 316q-14 44-28 92.5T494 482l-7 25h-2l-7-25q-7-25-21.5-75.5T428 309L332 0h-88L18 700h90l104-333q78-249 80-253h2q1 1 66 221l83 271h95l82-272q10-33 27-90.5t28-93 11-36.5h2q0 1 11.5 36.5t32 102.5T765 361l109 339h81L730 0z" horiz-adv-x="973" unicode="W"/><glyph d="M558 0 429 176q-26 35-49.5 67.5T348 288l-9 11h-1q-1 0-93-125L119 0H20l271 364L42 700h99l123-168q80-109 81-109h1l8 11q7 10 27 38.5t42 59.5l119 168h97L392 363 660 0z" horiz-adv-x="680" unicode="X"/><glyph d="M369 304V0h-82v304L17 700h94l157-230q16-22 31.5-45t22.5-35l8-11h2l7 11q7 11 22 33.5t31 44.5l159 232h89z" horiz-adv-x="657" unicode="Y"/><glyph d="M612 622 228 169q-26-31-46.5-54T154 84l-8-7 2-2h4q5 0 12.5.5t18 .5H612V0H42v75l392 462q22 26 41.5 47t27.5 30l8 8-1 3h-4q-4 0-11.5-.5t-17-.5H52v76h560z" horiz-adv-x="654" unicode="Z"/><glyph d="M324-136v-74H94V798h230v-74H174v-860z" horiz-adv-x="364" unicode="["/><glyph d="M462 0h-86L23 700h85z" horiz-adv-x="485" unicode="\"/><glyph d="M40 726v74h230V-208H40v74h150v860z" horiz-adv-x="364" unicode="]"/><glyph d="M334 637 125 365l-61 40 233 300h74l232-300-60-40z" unicode="^"/><glyph d="M652-64H77V0h575z" horiz-adv-x="729" unicode="_"/><glyph d="m248 915 104-161h-76l-95 139z" horiz-adv-x="533" unicode="`"/><glyph d="M432 150H162L104 0H23l229 560h92L573 0h-82zm-27 68-49 125q-57 143-57 150h-3q0-4-60-157l-47-118z" horiz-adv-x="596" unicode="a"/><glyph d="M378 299v-3q51-9 89-44t38-95q0-69-51.5-113T311 0H77v560h223q74 0 121.5-41t47.5-99q0-95-91-121m-223 23h130q43 0 74.5 23t31.5 65q0 36-28.5 60T286 494H155zm0-256h154q51 0 83.5 25.5T425 161q0 45-34 71.5T305 259H155z" horiz-adv-x="542" unicode="b"/><glyph d="m526 172 75-20Q565 77 495 32.5T335-12q-128 0-212.5 82.5T38 280q0 125 84.5 208T334 571q88 0 158.5-42T597 406l-74-20q-66 113-188 113-95 0-156.5-61.5T117 280q0-97 61.5-158.5T334 60q66 0 115.5 31t76.5 81" horiz-adv-x="645" unicode="c"/><glyph d="M77 560h193q138 0 224-76.5T580 278 495 74.5 275 0H77zm78-487h118q103 0 165.5 52.5T501 278t-63 154.5T269 487H155z" horiz-adv-x="618" unicode="d"/><glyph d="M77 0v560h393v-73H155V325h243v-71H155V73h320V0z" horiz-adv-x="525" unicode="e"/><glyph d="M460 487H155V305h227v-73H155V0H77v560h383z" horiz-adv-x="498" unicode="f"/><glyph d="M612 0h-70v56.5l.5 14 .5 8V82h-2q-79-94-209-94-126 0-210 83T38 280t84 208.5T333 571q85 0 157.5-40.5T598 406l-72-19q-22 46-71.5 79.5T335 500q-96 0-157-61t-61-160q0-97 62.5-158T343 60q66 0 121.5 28.5T541 151v71H371v70h241z" horiz-adv-x="672" unicode="g"/><glyph d="M540 0h-78v252H155V0H77v560h78V325h307v235h78z" horiz-adv-x="616" unicode="h"/><glyph d="M77 0v560h78V0z" horiz-adv-x="232" unicode="i"/><glyph d="M352 560V226q0-115-52-176.5T149-12Q55-12 0 50l43 57q41-47 105-47 66 0 96 42t30 127v331z" horiz-adv-x="424" unicode="j"/><glyph d="M463 0 260 285 155 177V0H77v560h78V340.5l-.5-24-.5-19.5v-27h2q29 31 76 79l204 211h99L318 337 553 0z" horiz-adv-x="570" unicode="k"/><glyph d="M77 0v560h78V73h292V0z" horiz-adv-x="483" unicode="l"/><glyph d="M546 0v284l1 162h-2L376 136h-53L153 450h-2v-12q0-12 .5-30.5t1-39.5.5-43V0H77v560h95l118-212q18-32 34-62t22-43l7-13h2q1 0 7.5 12.5t23 44T419 349l116 211h89V0z" horiz-adv-x="701" unicode="m"/><glyph d="M553 0h-80L155 441h-2v-4q0-4 .5-10.5t.5-15v-20l.5-24 .5-26.5V0H77v560h80l317-434h2v28l-.5 19-.5 22.5V560h78z" horiz-adv-x="630" unicode="n"/><glyph d="M38 279q0 127 84.5 209.5T332 571t209.5-82.5T626 279q0-125-84.5-208T332-12 122.5 71 38 279m79 0q0-96 61.5-157.5T332 60t153.5 61.5T547 279q0 97-61 158.5T332 499t-154-61.5T117 279" horiz-adv-x="665" unicode="o"/><glyph d="M77 560h182q104 0 161-47t57-128q0-82-56.5-128T259 211H155V0H77zm78-283h107q66 0 101 28t35 78-34.5 78.5T262 490H155z" horiz-adv-x="504" unicode="p"/><glyph d="M626 279q0-115-72-195T370-9v-107h-78V-9Q181 5 109.5 84.5T38 279q0 127 84.5 209.5T332 571t209.5-82.5T626 279M332 60q92 0 153.5 61.5T547 279q0 97-61 158.5T332 499t-154-61.5T117 279q0-96 61.5-157.5T332 60" horiz-adv-x="663" unicode="q"/><glyph d="M413 0 279 222q-22-1-62-1h-62V0H77v560h184q104 0 161.5-44T480 391q0-62-34-102t-92-53L498 0zM155 284h109q137 0 137 102 0 103-137 103H155z" horiz-adv-x="535" unicode="r"/><glyph d="m35 139 71 19q6-49 46.5-78T259 51q59 0 93 25t34 73q0 16-4.5 29t-10 22.5T353 218t-21.5 13-28 10.5-29.5 8-34.5 7.5-34.5 7q-33 7-55 15t-48.5 24T61 347.5 47 415q0 76 52.5 116T247 571q180 0 213-136l-69-19q-25 92-139 92-60 0-92.5-23.5T127 418q0-46 35.5-65.5T278 318q30-6 48-10.5t47.5-17.5 47-29 31-45 13.5-66q0-80-55.5-121T259-12q-37 0-70 6.5t-66.5 22-56.5 47T35 139" horiz-adv-x="500" unicode="s"/><glyph d="M506 487H310V0h-78v487H37v73h469z" horiz-adv-x="543" unicode="t"/><glyph d="M543 560V241q0-126-61.5-189.5T305-12 129 51.5 68 241v319h79V233q0-173 159-173t159 173v327z" horiz-adv-x="611" unicode="u"/><glyph d="M346 0h-90L17 560h86l117-274q25-59 45.5-108.5T294 108l9-21h2l3 7q3 8 9.5 24.5t15.5 38 23.5 56T387 285l116 275h83z" horiz-adv-x="603" unicode="v"/><glyph d="m532 0-70 218q-15 47-28.5 91T414 372l-6 20h-2l-6-18q-6-19-21-66t-29-91L281 0h-79L18 560h83l84-259q18-54 34-105t23-72l6-22h1l7 20q6 21 20 66.5t28 89.5l66 211h81l65-211q14-44 27.5-89.5T563 122l6-20h1l7 22q7 21 23 71.5T634 301l84 259h77L611 0z" horiz-adv-x="813" unicode="w"/><glyph d="M462 0 362 130q-23 30-43 56.5T292 223l-8 10h-1q-1 0-79-104L109 0H20l217 289L37 560h93l81-109q22-29 43.5-57.5T284 354l8-10h1l8 10q8 11 30.5 41.5T375 455l76 105h86L336 288 556 0z" horiz-adv-x="576" unicode="x"/><glyph d="M309 0h-78v231L17 560h89l90-137q20-29 39-58.5t29-44.5l9-15h2l9 15q10 14 30 44.5t39 59.5l89 136h82L309 231z" horiz-adv-x="541" unicode="y"/><glyph d="M515 486 247 185q-37-41-63-69t-34-35l-7-7 2-2q30 1 76 1h294V0H42v74l280 310q31 35 55 60.5t31 33.5l7 7-2 2H50v73h465z" horiz-adv-x="557" unicode="z"/><glyph d="M223 567V452q0-36-7-64.5t-16.5-45-21.5-28-19-15.5-13-6q5-1 12.5-5.5T178 271t21.5-29 16.5-45.5 7-63.5V19q0-91 37-125.5T362-141v-70q-101 0-157.5 56T148 15v118q0 117-71 124v72q28 5 43 20 28 33 28 104v118q0 114 56.5 170T362 797v-71q-65 0-102-34t-37-125" horiz-adv-x="403" unicode="{"/><glyph d="M60 775h67V-74H60z" horiz-adv-x="187" unicode="|"/><glyph d="M180 19v115q0 44 10 77t25 49 25 23 18 10q-5 1-13 5.5T225.5 315 204 343.5t-17 45-7 63.5v115q0 91-37 125T41 726v71q101 0 157.5-56.5T255 570V453q1-118 72-125v-71q-32-5-48-26-24-34-24-99V15q0-114-56.5-170T41-211v71q65 0 102 34t37 125" horiz-adv-x="403" unicode="}"/><glyph d="m534 346 13-67q-11-15-41-30.5T437 233q-37 0-100.5 21.5T235 276q-56 0-100-46l-15 66q42 49 112 49 37 0 100-21.5T433 302q55 0 101 44" unicode="~"/><glyph d="M131 710q26 0 40-14.5t14-36.5-14.5-36-39.5-14-39.5 14T77 659t14.5 36.5T131 710M91 0v538h81V0z" horiz-adv-x="262" unicode="¡"/><glyph d="M299 90q116 0 165 101l72-20q-27-63-81.5-103T332 20V-84h-67V20q-99 11-163 82.5T38 282q0 107 62 177t164 81v104h68V540q71-7 126.5-46T540 382l-72-20q-20 51-62.5 81T302 473q-85 0-136-52t-51-139 51-139.5T299 90" horiz-adv-x="584" unicode="¢"/><glyph d="M469 73V0H36v73q38 7 51 29.5t13 65.5q0 23-4 75H35v64h54q-8 72-8 101 0 78 48 120.5T261 571q174 0 197-157l-73-20q-9 55-38 81.5T264 502q-107 0-107-110 0-10 7-85h199v-64H172q5-47 5-74 0-78-40-96l1-2q8 2 171 2z" horiz-adv-x="510" unicode="£"/><glyph d="m596 516-71-71q61-71 61-166 0-86-55-159l73-73-43-43-73 73q-74-61-166-61-93 0-165 61L84 4 41 47l73 74q-54 70-54 158 0 96 60 167l-71 70 43 43 72-71q70 55 158 55 89 0 160-54l71 70zm-274-47q-78 0-133-55t-55-135 55-134.5T322 90q80 0 135 54.5T512 279t-55 135-135 55" horiz-adv-x="645" unicode="¤"/><glyph d="M365 365h79v-60H330l-29-51h143v-61H287V0h-78v193H54v61h142l-29 51H54v60h78L20 560h87l96-175q38-71 46-79h2q8 8 46 79l96 175h84z" horiz-adv-x="498" unicode="¥"/><glyph d="M127 490H60v285h67zm0-564H60v285h67z" horiz-adv-x="187" unicode="¦"/><glyph d="M487 252q89-34 89-118 0-75-60.5-111T347-13q-46 0-86 6.5t-79 21T117.5 58 86 128l77 20q9-100 178-100 152 0 152 89 0 43-39 60t-147 35q-17 2-26 4-38 6-65.5 13.5t-58.5 22-47.5 38.5T93 367q0 81 95 112-85 32-85 108 0 67 60 97t153 30q211 0 244-140l-69-19q-28 101-176 101-131 0-131-68 0-43 59-62 28-9 127-26 42-7 69.5-13t57-16.5T542 447t26.5-34 10.5-48q0-84-92-113M168 377q0-22 14-38t39.5-25.5 56-16T348 284q9-1 14-2 19-2 48-8 93 17 93 79 0 20-10 35t-24 24-40 16.5-45 10.5-52 8l-21 3-38 7q-105-16-105-80" unicode="§"/><glyph d="M171 776q-19 0-32 13.5T126 822q0 20 13.5 33.5T172 869t32.5-14 13.5-33-14-32.5-33-13.5m190 0q-19 0-33 13.5T314 822q0 20 14 33.5t33 13.5 32.5-14 13.5-33-13.5-32.5T361 776" horiz-adv-x="533" unicode="¨"/><glyph d="M401 629q153 0 258.5-103T765 265 659.5 4 401-99Q249-99 143.5 4T38 265t105.5 261T401 629m0-47q-137 0-225.5-87.5T87 266t89-229.5T401-52q137 0 226.5 88T717 266q0 141-89.5 228.5T401 582m118-386 54-17q-23-48-70-76.5T396 74q-85 0-139 53.5T203 265q0 85 55 138t140 53q60 0 107-29.5t65-82.5l-53-15q-7 24-36 48.5T400 402q-61 0-99.5-37T262 266q0-61 37.5-99t98.5-38q82 0 121 67" horiz-adv-x="804" unicode="©"/><glyph d="M90 235H35l134 325h62l133-325h-56l-31 78H121zm110 272h-2l-4-11-13-32.5-17-43.5-26-64h122l-26 64q-8 21-17 43.5L204 496zm165-340v-55H35v55z" horiz-adv-x="400" unicode="ª"/><glyph d="m540 513 47-47-192-186v-3L587 91l-47-47-235 235zm-245 0 47-47-192-186v-3L342 91l-47-47L60 279z" horiz-adv-x="647" unicode="«"/><glyph d="M480 254H100v69h380z" horiz-adv-x="581" unicode="­"/><glyph d="M401 629q153 0 258.5-103T765 265 659.5 4 401-99Q249-99 143.5 4T38 265t105.5 261T401 629m0-47q-137 0-225.5-87.5T87 266t89-229.5T401-52q137 0 226.5 88T717 266q0 141-89.5 228.5T401 582m90-500-85 147q-13-1-36-1h-36V82h-60v369h126q69 0 107.5-30t38.5-83q0-80-81-99l91-157zM334 275h69q83 0 83 61 0 62-83 62h-69z" horiz-adv-x="804" unicode="®"/><glyph d="M412 775H121v69h291z" horiz-adv-x="533" unicode="¯"/><glyph d="M130 589q-50 0-81.5 31.5T17 701t31.5 80.5T130 813t82-31.5 32-80.5-32-80.5-82-31.5m0 51q28 0 45 17t17 44q0 28-17 45t-45 17q-27 0-44-17t-17-45q0-26 17-43.5t44-17.5" horiz-adv-x="261" unicode="°"/><glyph d="M524 377v-69H371V149h-74v159H144v69h153l-1 161h75V377zM144 69h380V0H144z" unicode="±"/><glyph d="M32 472v63l163 123q55 38 55 89 0 32-20.5 51T170 817q-37 0-57.5-15.5T83 750l-48 14q24 106 139 106 63 0 98.5-32t35.5-87q0-67-71-123-22-18-56.5-43.5t-57-42T99 524l2-3q27 3 74 3h136v-52z" horiz-adv-x="340" unicode="²"/><glyph d="M229 675v-3q36-5 60.5-30t24.5-65q0-50-38.5-81.5T179 464q-64 0-104.5 33T27 583l53 15q2-38 27.5-60.5T175 515q40 0 61.5 20t21.5 49q0 31-23.5 50T172 653h-33v40h31q38 0 61 19t23 47q0 25-20 43t-64 18q-40 0-58.5-17T86 750l-49 14q17 106 138 106 66 0 100-29t34-74q0-38-23.5-63.5T229 675" horiz-adv-x="340" unicode="³"/><glyph d="M257 754h-76l104 161 67-22z" horiz-adv-x="533" unicode="´"/><glyph d="M421-140v624h-89v-624h-82v343q-105 0-158.5 48T38 383q0 82 53.5 129.5T250 560h253v-700z" horiz-adv-x="580" unicode="¶"/><glyph d="M112 231q-26 0-40 14.5T58 282t14.5 36 39.5 14 39.5-14 14.5-36-14-36.5-40-14.5" horiz-adv-x="224" unicode="·"/><glyph d="M379-88q0-84-122-84-53 0-83 15v56q23-14 73-14 71 0 71 37 0 43-112 44v58h60V-2q113-9 113-86" horiz-adv-x="533" unicode="¸"/><glyph d="M302 472H63v52h90v184q0 65 4 85h-3l-4-4q-4-4-11-11.5T127 765l-43-43-37 36 109 104h55V524h91z" horiz-adv-x="340" unicode="¹"/><glyph d="M35 397q0 75 50 124.5T208 571q72 0 123-49.5T382 397q0-73-51-122.5T208 225q-73 0-123 49T35 397m54 0q0-52 33.5-86t85.5-34 85.5 34 33.5 86q0 53-33.5 87.5T208 519t-85.5-34.5T89 397m283-286H46v55h326z" horiz-adv-x="417" unicode="º"/><glyph d="M107 44 60 91l192 186v3L60 466l47 47 235-234zm245 0-47 47 192 186v3L305 466l47 47 235-234z" horiz-adv-x="647" unicode="»"/><glyph d="M545 700 335 0h-62l209 700zM302 310H63v51h90v185q0 65 4 85h-3l-4-4q-4-4-11-11.5T127 603l-43-43-37 36 109 104h55V361h91zM737 0h-56v99H494v52l166 240h77V151h66V99h-66zm-56 151v92q0 23 1 45.5t2 35.5l1 13h-4q-1 0-64.5-91T552 153l2-3h11.5l12 .5 14.5.5z" horiz-adv-x="818" unicode="¼"/><glyph d="M302 310H63v52h90v184q0 65 4 85h-3l-4-4q-4-4-11-11.5T127 603l-43-43-37 36 109 104h55V362h91zm243 390L335 0h-62l209 700zM510 0v64l164 123q55 40 55 89 0 31-21 50.5T648 346q-37 0-57.5-15.5T561 279l-48 14q24 106 140 106 62 0 97.5-32t35.5-87q0-67-71-123-23-18-56.5-43.5T602 71t-24-18l1-3q18 2 74 2h137V0z" horiz-adv-x="818" unicode="½"/><glyph d="M229 513v-3q36-5 60.5-30t24.5-65q0-50-38.5-81.5T179 302q-64 0-104.5 33T27 421l53 15q2-38 27.5-60.5T175 353q40 0 61.5 20t21.5 49q0 31-23.5 50T172 491h-33v40h31q38 0 61 19t23 47q0 25-20 43t-64 18q-40 0-58.5-17T86 588l-49 14q17 106 138 106 66 0 100-29t34-74q0-38-23.5-63.5T229 513m316 187L335 0h-62l209 700zM737 0h-56v99H494v52l166 240h77V151h66V99h-66zm-56 151v92q0 23 1 45.5t2 35.5l1 13h-4q-1 0-64.5-91T552 153l2-3h11.5l12 .5 14.5.5z" horiz-adv-x="818" unicode="¾"/><glyph d="M294 710q25 0 39.5-14.5T348 659t-14.5-36-39.5-14q-26 0-40 14t-14 36 14.5 36.5T294 710m40-172V361q-119-41-165.5-79.5T122 190q0-52 35.5-89T275 64q139 0 173 127l77-21q-22-88-88-136T271-14Q157-14 97.5 42.5T38 180q0 44 18 80.5t50.5 63 66.5 44 78 33.5v137z" horiz-adv-x="563" unicode="¿"/><glyph d="m337 754-95 139 67 22 104-161zm206-568H188L110 0H23l298 700h89L708 0h-87zm-31 74-77 183q-10 24-28.5 68T377 581l-11 26h-2q-1-1-68-163l-77-184z" horiz-adv-x="732" unicode="À"/><glyph d="M388 754h-76l104 161 67-22zm155-568H188L110 0H23l298 700h89L708 0h-87zm-31 74-77 183q-10 24-28.5 68T377 581l-11 26h-2q-1-1-68-163l-77-184z" horiz-adv-x="732" unicode="Á"/><glyph d="m259 756-39 45 144 118 142-118-38-46-104 88zm284-570H188L110 0H23l298 700h89L708 0h-87zm-31 74-77 183q-10 24-28.5 68T377 581l-11 26h-2q-1-1-68-163l-77-184z" horiz-adv-x="732" unicode="Â"/><glyph d="M292 812q-43 0-71-28l-17 59q29 35 82 35 28 0 72-17.5t75-17.5q41 0 69 26l16-59q-25-32-80-32-29 0-73.5 17T292 812m251-626H188L110 0H23l298 700h89L708 0h-87zm-31 74-77 183q-10 24-28.5 68T377 581l-11 26h-2q-1-1-68-163l-77-184z" horiz-adv-x="732" unicode="Ã"/><glyph d="M271 776q-19 0-32.5 13.5T225 822t13.5 33 32.5 14 32.5-13.5T317 822q0-19-13.5-32.5T271 776m189 0q-19 0-32.5 13.5T414 822q0 20 13.5 33.5T460 869t32.5-13.5T506 822q0-19-13.5-32.5T460 776m83-590H188L110 0H23l298 700h89L708 0h-87zm-31 74-77 183q-10 24-28.5 68T377 581l-11 26h-2q-1-1-68-163l-77-184z" horiz-adv-x="732" unicode="Ä"/><glyph d="M365 739q-45 0-73.5 26T263 833t28.5 67.5T365 926q46 0 74-25.5t28-67.5q0-43-28-68.5T365 739m0 139q-21 0-34.5-12.5T317 833q0-21 13.5-33.5T365 787q22 0 35 12.5t13 33.5q0 20-13 32.5T365 878m178-692H188L110 0H23l298 700h89L708 0h-87zm-31 74-77 183q-10 24-28.5 68T377 581l-11 26h-2q-1-1-68-163l-77-184z" horiz-adv-x="732" unicode="Å"/><glyph d="M935 73V0H464v189H189L110 0H23l299 700h611v-73H544V401h307v-70H544V73zM464 259v368h-91L219 259z" horiz-adv-x="985" unicode="Æ"/><glyph d="m646 218 79-21q-35-86-106.5-139.5T453-9q70-18 70-79 0-84-122-84-53 0-83 15v56q23-14 73-14 71 0 71 37 0 43-112 44v24Q212 6 125 104T38 352q0 163 102 262.5T398 714q116 0 199.5-54T716 523l-79-22q-12 22-29 42t-45.5 43-72 37-94.5 14q-123 0-199.5-77.5T120 351q0-130 78-208t196-78q85 0 152 41t100 112" horiz-adv-x="769" unicode="Ç"/><glyph d="m259 915 104-161h-76l-95 139zM77 0v700h471v-76H158V404h304v-76H158V76h392V0z" horiz-adv-x="600" unicode="È"/><glyph d="M339 754h-76l104 161 67-22zM77 0v700h471v-76H158V404h304v-76H158V76h392V0z" horiz-adv-x="600" unicode="É"/><glyph d="m457 801-39-46-104 88-105-87-38 45 143 118zM77 0v700h471v-76H158V404h304v-76H158V76h392V0z" horiz-adv-x="600" unicode="Ê"/><glyph d="M221 776q-19 0-32.5 13.5T175 822q0 20 13.5 33.5T222 869q19 0 32-13.5t13-33.5q0-19-13.5-32.5T221 776m189 0q-19 0-32.5 13.5T364 822q0 20 13.5 33.5T410 869q20 0 33.5-13.5T457 822q0-19-14-32.5T410 776M77 0v700h471v-76H158V404h304v-76H158V76h392V0z" horiz-adv-x="600" unicode="Ë"/><glyph d="m62 915 103-161H89L-6 893zM77 0v700h81V0z" horiz-adv-x="235" unicode="Ì"/><glyph d="M141 754H65l104 161 67-22zM77 0v700h81V0z" horiz-adv-x="235" unicode="Í"/><glyph d="m234 803-41-44-75 78-75-77-41 44 116 115zM77 0v700h81V0z" horiz-adv-x="235" unicode="Î"/><glyph d="M57 776q-19 0-32.5 13.5T11 822t13.5 33T57 869t32.5-13.5T103 822q0-19-13.5-32.5T57 776m122 0q-19 0-32.5 13.5T133 822q0 20 13.5 33.5T179 869t32.5-13.5T225 822q0-19-13.5-32.5T179 776M77 0v700h81V0z" horiz-adv-x="235" unicode="Ï"/><glyph d="M77 700h242q165 0 268.5-96.5T691 347q0-159-102.5-253T326 0H77v329H11v73h66zm81-624h164q124 0 205.5 70T609 347t-82.5 204T316 624H158V402h177v-73H158z" horiz-adv-x="729" unicode="Ð"/><glyph d="m505 869 17-59q-28-32-81-32-29 0-73.5 17T296 812q-46 0-71-28l-17 59q28 35 81 35 27 0 72-17.5t75-17.5q41 0 69 26M568 0 158 569h-2v-5q0-5 .5-13.5t.5-20.5v-27l.5-31 .5-34.5V0H77v700h82l410-564h2v5q0 5-.5 14t-.5 20.5V202l-.5 30.5-.5 33V700h82V0z" horiz-adv-x="727" unicode="Ñ"/><glyph d="m345 915 104-161h-76l-95 139zM38 351q0 161 103.5 262T401 714q155 0 259-101.5T764 351q0-161-104-262.5T401-13Q245-13 141.5 88.5T38 351m82 0q0-131 79.5-208.5T401 65q121 0 201 78t80 208-80 208-201 78-201-78-80-208" horiz-adv-x="802" unicode="Ò"/><glyph d="M425 754h-76l104 161 67-22zM38 351q0 161 103.5 262T401 714q155 0 259-101.5T764 351q0-161-104-262.5T401-13Q245-13 141.5 88.5T38 351m82 0q0-131 79.5-208.5T401 65q121 0 201 78t80 208-80 208-201 78-201-78-80-208" horiz-adv-x="802" unicode="Ó"/><glyph d="m543 801-39-46-104 88-105-87-38 45 143 118zM38 351q0 161 103.5 262T401 714q155 0 259-101.5T764 351q0-161-104-262.5T401-13Q245-13 141.5 88.5T38 351m82 0q0-131 79.5-208.5T401 65q121 0 201 78t80 208-80 208-201 78-201-78-80-208" horiz-adv-x="802" unicode="Ô"/><glyph d="m538 869 17-59q-28-32-81-32-29 0-73.5 17T329 812q-46 0-71-28l-17 59q25 35 81 35 28 0 72-17.5t75-17.5q41 0 69 26M38 351q0 161 103.5 262T401 714q155 0 259-101.5T764 351q0-161-104-262.5T401-13Q245-13 141.5 88.5T38 351m82 0q0-131 79.5-208.5T401 65q121 0 201 78t80 208-80 208-201 78-201-78-80-208" horiz-adv-x="802" unicode="Õ"/><glyph d="M307 776q-19 0-32.5 13.5T261 822q0 20 13.5 33.5T308 869q19 0 32-13.5t13-33.5q0-19-13.5-32.5T307 776m189 0q-19 0-32.5 13.5T450 822q0 20 13.5 33.5T496 869q20 0 33.5-13.5T543 822q0-19-14-32.5T496 776M38 351q0 161 103.5 262T401 714q155 0 259-101.5T764 351q0-161-104-262.5T401-13Q245-13 141.5 88.5T38 351m82 0q0-131 79.5-208.5T401 65q121 0 201 78t80 208-80 208-201 78-201-78-80-208" horiz-adv-x="802" unicode="Ö"/><glyph d="m384 290 125-124-50-50-125 125-125-125-49 50 125 124-125 125 49 49 125-124 125 124 49-50z" unicode="×"/><glyph d="m729 714-74-96q109-104 109-267 0-161-104-262.5T401-13q-106 0-190 49l-75-99-61 47 74 98Q38 183 38 351q0 161 103.5 262T401 714q106 0 192-50l74 96zM120 351q0-126 78-206l347 456q-66 36-144 36-121 0-201-78t-80-208M401 65q120 0 200.5 78T682 351q0 124-76 203L259 99q65-34 142-34" horiz-adv-x="802" unicode="Ø"/><glyph d="m293 915 104-161h-76l-95 139zm335-215V292q0-148-72-226.5T348-13 140 65 68 292v408h83V292q0-115 48-171t149-56 150 56 49 171v408z" horiz-adv-x="696" unicode="Ù"/><glyph d="M372 754h-76l104 161 67-22zm256-54V292q0-148-72-226.5T348-13 140 65 68 292v408h83V292q0-115 48-171t149-56 150 56 49 171v408z" horiz-adv-x="696" unicode="Ú"/><glyph d="m490 801-38-46-104 88-105-87-39 45 144 118zm138-101V292q0-148-72-226.5T348-13 140 65 68 292v408h83V292q0-115 48-171t149-56 150 56 49 171v408z" horiz-adv-x="696" unicode="Û"/><glyph d="M255 776q-19 0-32.5 13.5T209 822t13.5 33 32.5 14 32.5-13.5T301 822q0-19-13.5-32.5T255 776m189 0q-19 0-32.5 13.5T398 822q0 20 13.5 33.5T444 869t32.5-13.5T490 822q0-19-13.5-32.5T444 776m184-76V292q0-148-72-226.5T348-13 140 65 68 292v408h83V292q0-115 48-171t149-56 150 56 49 171v408z" horiz-adv-x="696" unicode="Ü"/><glyph d="M359 754h-76l104 161 67-22zm10-450V0h-82v304L17 700h94l157-230q16-22 31.5-45t22.5-35l8-11h2l7 11q7 11 22 33.5t31 44.5l159 232h89z" horiz-adv-x="657" unicode="Ý"/><glyph d="M158 558h122q122 0 188.5-54T535 351t-66.5-151.5T280 147H158V0H77v700h81zm0-337h125q171 0 171 130 0 131-171 131H158z" horiz-adv-x="562" unicode="Þ"/><glyph d="M369 341h6q76 0 126.5-47.5T552 168q0-79-50.5-130T366-13q-87 0-136 45l33 56q43-35 96-35t85 31.5 32 80.5q0 48-32 78.5T357 274h-70v67l83 144-1 2H155V0H77v560h418L369 343z" horiz-adv-x="581" unicode="ß"/><glyph d="m270 614-95 139 68 22 103-161zm162-464H162L104 0H23l229 560h92L573 0h-82zm-27 68-49 125q-57 143-57 150h-3q0-4-60-157l-47-118z" horiz-adv-x="596" unicode="à"/><glyph d="M322 614h-76l104 161 67-22zm110-464H162L104 0H23l229 560h92L573 0h-82zm-27 68-49 125q-57 143-57 150h-3q0-4-60-157l-47-118z" horiz-adv-x="596" unicode="á"/><glyph d="m224 620-41 44 116 115 116-116-41-44-75 78zm208-470H162L104 0H23l229 560h92L573 0h-82zm-27 68-49 125q-57 143-57 150h-3q0-4-60-157l-47-118z" horiz-adv-x="596" unicode="â"/><glyph d="M231 672q-36 0-61-28l-16 60q22 34 71 34 26 0 66.5-17.5T359 703q31 0 60 26l16-60q-6-10-25.5-20.5T365 638q-27 0-68 17t-66 17m201-522H162L104 0H23l229 560h92L573 0h-82zm-27 68-49 125q-57 143-57 150h-3q0-4-60-157l-47-118z" horiz-adv-x="596" unicode="ã"/><glyph d="M204 636q-19 0-32 13.5T159 682q0 20 13.5 33.5T205 729t32.5-14 13.5-33-14-32.5-33-13.5m190 0q-19 0-33 13.5T347 682q0 20 13.5 33.5T394 729q19 0 32.5-14t13.5-33-13.5-32.5T394 636m38-486H162L104 0H23l229 560h92L573 0h-82zm-27 68-49 125q-57 143-57 150h-3q0-4-60-157l-47-118z" horiz-adv-x="596" unicode="ä"/><glyph d="M299 599q-45 0-73.5 26T197 693t28.5 67.5T299 786t73.5-25.5T401 693t-28.5-68-73.5-26m0 139q-22 0-35-12.5T251 693q0-21 13-33.5t35-12.5 35 12.5 13 33.5q0 20-13 32.5T299 738m133-588H162L104 0H23l229 560h92L573 0h-82zm-27 68-49 125q-57 143-57 150h-3q0-4-60-157l-47-118z" horiz-adv-x="596" unicode="å"/><glyph d="M765 73V0H370v146H161L103 0H23l230 560h507v-73H445V325h244v-71H445V73zM370 214v275h-74L188 214z" horiz-adv-x="815" unicode="æ"/><glyph d="m526 172 75-20q-31-65-88-107.5T381-8q80-17 80-81 0-41-31-63t-91-22q-55 0-83 16v56q25-15 72-15 72 0 72 38 0 42-112 43v28Q177 7 107.5 86.5T38 280q0 125 84.5 208T334 571q88 0 158.5-42T597 406l-74-20q-66 113-188 113-95 0-156.5-61.5T117 280q0-97 61.5-158.5T334 60q66 0 115.5 31t76.5 81" horiz-adv-x="645" unicode="ç"/><glyph d="m219 775 104-161h-77l-95 139zM77 0v560h393v-73H155V325h243v-71H155V73h320V0z" horiz-adv-x="525" unicode="è"/><glyph d="M298 614h-76l104 161 67-22zM77 0v560h393v-73H155V325h243v-71H155V73h320V0z" horiz-adv-x="525" unicode="é"/><glyph d="m416 661-38-46-105 88-105-87-38 45 143 118zM77 0v560h393v-73H155V325h243v-71H155V73h320V0z" horiz-adv-x="525" unicode="ê"/><glyph d="M180 636q-19 0-32 13.5T135 682q0 20 13.5 33.5T181 729t32.5-14 13.5-33-14-32.5-33-13.5m190 0q-19 0-33 13.5T323 682q0 20 13.5 33.5T370 729q19 0 32.5-14t13.5-33-13.5-32.5T370 636M77 0v560h393v-73H155V325h243v-71H155V73h320V0z" horiz-adv-x="525" unicode="ë"/><glyph d="m60 775 104-161H88L-7 753zM77 0v560h78V0z" horiz-adv-x="232" unicode="ì"/><glyph d="M140 614H64l104 161 67-22zM77 0v560h78V0z" horiz-adv-x="232" unicode="í"/><glyph d="m232 663-40-44-75 78-76-77-40 44 116 115zM77 0v560h78V0z" horiz-adv-x="232" unicode="î"/><glyph d="M55 636q-19 0-32 13.5T10 682q0 20 13.5 33.5T56 729t32.5-14 13.5-33-14-32.5T55 636m123 0q-19 0-32.5 13.5T132 682q0 20 13.5 33.5T178 729t32.5-14 13.5-33-13.5-32.5T178 636M77 0v560h78V0z" horiz-adv-x="232" unicode="ï"/><glyph d="M77 560h193q138 0 224-76.5T580 278 495 74.5 275 0H77v253H11v70h66zm78-487h118q103 0 165.5 52.5T501 278t-63 154.5T269 487H155V323h173v-70H155z" horiz-adv-x="618" unicode="ð"/><glyph d="m431 729 16-60q-6-10-25.5-20.5T377 638q-27 0-68 17t-66 17q-36 0-61-28l-16 60q22 34 71 34 26 0 66.5-17.5T371 703q31 0 60 26M553 0h-80L155 441h-2v-4q0-4 .5-10.5t.5-15v-20l.5-24 .5-26.5V0H77v560h80l317-434h2v28l-.5 19-.5 22.5V560h78z" horiz-adv-x="630" unicode="ñ"/><glyph d="m277 775 104-161h-76l-96 139zM38 279q0 127 84.5 209.5T332 571t209.5-82.5T626 279q0-125-84.5-208T332-12 122.5 71 38 279m79 0q0-96 61.5-157.5T332 60t153.5 61.5T547 279q0 97-61 158.5T332 499t-154-61.5T117 279" horiz-adv-x="665" unicode="ò"/><glyph d="M356 614h-76l104 161 67-22zM38 279q0 127 84.5 209.5T332 571t209.5-82.5T626 279q0-125-84.5-208T332-12 122.5 71 38 279m79 0q0-96 61.5-157.5T332 60t153.5 61.5T547 279q0 97-61 158.5T332 499t-154-61.5T117 279" horiz-adv-x="665" unicode="ó"/><glyph d="m474 661-38-46-105 88-105-87-38 45 143 118zM38 279q0 127 84.5 209.5T332 571t209.5-82.5T626 279q0-125-84.5-208T332-12 122.5 71 38 279m79 0q0-96 61.5-157.5T332 60t153.5 61.5T547 279q0 97-61 158.5T332 499t-154-61.5T117 279" horiz-adv-x="665" unicode="ô"/><glyph d="m453 729 16-60q-6-10-25.5-20.5T399 638q-27 0-68 17t-66 17q-36 0-61-28l-16 60q22 34 71 34 26 0 66.5-17.5T393 703q31 0 60 26M38 279q0 127 84.5 209.5T332 571t209.5-82.5T626 279q0-125-84.5-208T332-12 122.5 71 38 279m79 0q0-96 61.5-157.5T332 60t153.5 61.5T547 279q0 97-61 158.5T332 499t-154-61.5T117 279" horiz-adv-x="665" unicode="õ"/><glyph d="M238 636q-19 0-32 13.5T193 682q0 20 13.5 33.5T239 729t32.5-14 13.5-33-14-32.5-33-13.5m190 0q-19 0-33 13.5T381 682q0 20 13.5 33.5T428 729q19 0 32.5-14t13.5-33-13.5-32.5T428 636M38 279q0 127 84.5 209.5T332 571t209.5-82.5T626 279q0-125-84.5-208T332-12 122.5 71 38 279m79 0q0-96 61.5-157.5T332 60t153.5 61.5T547 279q0 97-61 158.5T332 499t-154-61.5T117 279" horiz-adv-x="665" unicode="ö"/><glyph d="M334 425q-25 0-39.5 14.5T280 476t14.5 36 39.5 14q26 0 40-14.5t14-35.5q0-22-14-36.5T334 425m190-171H144v69h380zM334 55q-25 0-39.5 14.5T280 106t14.5 36 39.5 14q26 0 40-14.5t14-35.5q0-22-14-36.5T334 55" unicode="÷"/><glyph d="m598 566-59-75q87-84 87-212 0-125-84.5-208T332-12q-85 0-153 40l-57-75L64-3l58 74q-84 84-84 208 0 127 84.5 209.5T332 571q84 0 149-38l59 76zM117 279q0-87 52-147l267 342q-48 25-104 25-93 0-154-61.5T117 279M332 60q92 0 153.5 61.5T547 279q0 91-54 151L225 87q49-27 107-27" horiz-adv-x="665" unicode="ø"/><glyph d="m252 775 104-161h-77l-95 139zm291-215V241q0-126-61.5-189.5T305-12 129 51.5 68 241v319h79V233q0-173 159-173t159 173v327z" horiz-adv-x="611" unicode="ù"/><glyph d="M331 614h-76l104 161 67-22zm212-54V241q0-126-61.5-189.5T305-12 129 51.5 68 241v319h79V233q0-173 159-173t159 173v327z" horiz-adv-x="611" unicode="ú"/><glyph d="m449 661-38-46-105 88-105-87-38 45 143 118zm94-101V241q0-126-61.5-189.5T305-12 129 51.5 68 241v319h79V233q0-173 159-173t159 173v327z" horiz-adv-x="611" unicode="û"/><glyph d="M213 636q-19 0-32 13.5T168 682q0 20 13.5 33.5T214 729t32.5-14 13.5-33-14-32.5-33-13.5m190 0q-19 0-33 13.5T356 682q0 20 14 33.5t33 13.5 32.5-14 13.5-33-13.5-32.5T403 636m140-76V241q0-126-61.5-189.5T305-12 129 51.5 68 241v319h79V233q0-173 159-173t159 173v327z" horiz-adv-x="611" unicode="ü"/><glyph d="M301 614h-76l104 161 67-22zm8-614h-78v231L17 560h89l90-137q20-29 39-58.5t29-44.5l9-15h2l9 15q10 14 30 44.5t39 59.5l89 136h82L309 231z" horiz-adv-x="541" unicode="ý"/><glyph d="M155 441h78q215 0 215-160 0-155-215-155h-78V0H77v560h78zm0-251h80q69 0 101.5 21t32.5 69q0 47-33 68.5T235 370h-80z" horiz-adv-x="475" unicode="þ"/><glyph d="M183 636q-19 0-32.5 13.5T137 682q0 20 13.5 33.5T184 729q19 0 32-13.5t13-33.5q0-19-13.5-32.5T183 636m189 0q-19 0-32.5 13.5T326 682q0 20 13.5 33.5T372 729t32.5-13.5T418 682q0-19-13.5-32.5T372 636M309 0h-78v231L17 560h89l90-137q20-29 39-58.5t29-44.5l9-15h2l9 15q10 14 30 44.5t39 59.5l89 136h82L309 231z" horiz-adv-x="541" unicode="ÿ"/><glyph d="M943 0H478q-24-4-75-4-159 0-262 98T38 350t103.5 256T404 704q45 0 73-4h464v-76H552V405h307v-76H552V76h391zM120 351q0-129 77.5-205T404 70q38 0 68 10v542q-29 8-68 8-129 0-206.5-75T120 351" horiz-adv-x="997" unicode="Œ"/><glyph d="M787 0H399q-21-3-64-3-130 0-213.5 78T38 280t83.5 205T336 563q40 0 65-3h381v-73H467V325h243v-71H467V73h320zM117 281q0-97 60-155t160-58q27 0 55 5v414q-28 5-55 5-100 0-160-57.5T117 281" horiz-adv-x="840" unicode="œ"/><glyph d="M242 776q-19 0-32.5 13.5T196 822t13.5 33 32.5 14 32.5-13.5T288 822q0-19-13.5-32.5T242 776m189 0q-19 0-32.5 13.5T385 822q0 20 13.5 33.5T431 869t32.5-14 13.5-33-13.5-32.5T431 776m-62-472V0h-82v304L17 700h94l157-230q16-22 31.5-45t22.5-35l8-11h2l7 11q7 11 22 33.5t31 44.5l159 232h89z" horiz-adv-x="657" unicode="Ÿ"/><glyph d="m409 801-38-46-104 88-105-87-39 45 144 118z" horiz-adv-x="533" unicode="ˆ"/><glyph d="m390 869 16-60q-22-31-70-31-27 0-68 17t-66 17q-36 0-61-28l-16 60q22 34 71 34 26 0 66.5-17.5T330 843q31 0 60 26" horiz-adv-x="533" unicode="˜"/><glyph horiz-adv-x="463"/><glyph horiz-adv-x="926"/><glyph horiz-adv-x="463"/><glyph horiz-adv-x="926"/><glyph horiz-adv-x="308"/><glyph horiz-adv-x="231"/><glyph horiz-adv-x="154"/><glyph horiz-adv-x="154"/><glyph horiz-adv-x="115"/><glyph horiz-adv-x="185"/><glyph horiz-adv-x="51"/><glyph d="M480 254H100v69h380z" horiz-adv-x="581" unicode="‐"/><glyph d="M480 254H100v69h380z" horiz-adv-x="581" unicode="‑"/><glyph d="M480 254H100v69h380z" horiz-adv-x="581" unicode="‒"/><glyph d="M567 254H100v69h467z" unicode="–"/><glyph d="M900 254H100v69h800z" horiz-adv-x="1001" unicode="—"/><glyph d="M116 607q20 3 33-8.5t13-32.5q0-20-14.5-33.5T110 519q-27 0-43 17.5T51 584q0 37 24.5 75t66.5 52l33-38q-22-7-39-27t-20-39" horiz-adv-x="224" unicode="‘"/><glyph d="M108 624q-21-3-33.5 8.5T62 665q0 20 14.5 33.5T114 712q27 0 42.5-17.5T172 647q0-37-24.5-75T82 520l-33 38q21 7 38 27t21 39" horiz-adv-x="224" unicode="’"/><glyph d="M108-2Q87-5 74.5 6.5T62 38q0 21 14 34t38 13q27 0 42.5-17T172 21q0-37-24.5-75T82-107L49-68q21 7 38 27t21 39" horiz-adv-x="224" unicode="‚"/><glyph d="M297 607q21 3 33.5-8.5T343 566q0-20-14.5-33.5T291 519q-27 0-43 17.5T232 584q0 37 24.5 75t66.5 52l33-38q-21-7-38-27t-21-39m-183 0q20 3 32.5-8.5T159 566q0-20-14-33.5T108 519q-27 0-43 17.5T49 584q0 37 24.5 75t66.5 52l32-38q-21-7-38-27t-20-39" horiz-adv-x="407" unicode="“"/><glyph d="M108 624q-21-3-33.5 8.5T62 665q0 20 14.5 33.5T114 712q27 0 42.5-17.5T172 647q0-37-24.5-75T82 520l-33 38q21 7 38 27t21 39m183 0q-20-3-32.5 8.5T246 665q0 20 14 33.5t37 13.5q27 0 43-17.5t16-47.5q0-37-24.5-75T265 520l-33 38q22 7 39 27t20 39" horiz-adv-x="407" unicode="”"/><glyph d="M108-2Q87-5 74.5 6.5T62 38q0 21 14 34t38 13q27 0 42.5-17T172 21q0-37-24.5-75T82-107L49-68q21 7 38 27t21 39m170 0q-21-3-33.5 8.5T232 38q0 21 14 34t38 13q27 0 43-17t16-47q0-37-24.5-75T252-107l-33 39q21 7 38 27t21 39" horiz-adv-x="394" unicode="„"/><glyph d="M159 205q-35 0-58.5 22.5T77 285q0 34 23.5 56.5T159 364t58.5-22.5T241 285q0-35-23.5-57.5T159 205" horiz-adv-x="318" unicode="•"/><glyph d="M102-11Q81-11 69 1T57 31t12 29.5T102 72t32.5-11.5T146 31q0-19-11.5-30.5T102-11m240 0q-21 0-33 12t-12 30 12 29.5T342 72t32.5-11.5T386 31q0-19-11.5-30.5T342-11m250 0q-21 0-33 12t-12 30 12 29.5T592 72t32.5-11.5T636 31q0-19-11.5-30.5T592-11" horiz-adv-x="694" unicode="…"/><glyph horiz-adv-x="185"/><glyph d="m295 513 47-47-192-186v-3L342 91l-47-47L60 279z" horiz-adv-x="402" unicode="‹"/><glyph d="M107 44 60 91l192 186v3L60 466l47 47 235-234z" horiz-adv-x="402" unicode="›"/><glyph horiz-adv-x="231"/><glyph d="m482 155 76-21q-23-64-79.5-105T333-12q-101 0-164 52T87 193H38v61h42l-1 31v20H39v60h46q17 101 78.5 153.5T327 571q88 0 149.5-39.5T555 415l-76-21q-11 44-47 75t-104 31q-131 0-158-135h173v-60H163l-1-19q0-6 .5-16.5t.5-15.5h180v-61H172Q202 61 336 61q109 0 146 94" horiz-adv-x="602" unicode="€"/><glyph d="M707 375h-54v256h-1l-5-10q-5-10-13.5-27.5T617 561l-58-112h-34l-58 112q-8 15-17.5 33T434 622l-5 10h-1l1-125V375h-53v325h68l71-138q7-12 14-25.5t11-20.5l3-6h1q3 3 26 51l69 139h68zM312 700v-52H202V375h-55v273H37v52z" horiz-adv-x="784" unicode="™"/></font>
</defs>
</svg>
