<svg xmlns="http://www.w3.org/2000/svg"><defs><font id="novecento_sans_wideultralight" horiz-adv-x="207"><font-face ascent="821" descent="-179"/><glyph horiz-adv-x="1000"/><glyph horiz-adv-x="1000"/><glyph horiz-adv-x="1000"/><glyph horiz-adv-x="250"/><glyph horiz-adv-x="250"/><glyph horiz-adv-x="250"/><glyph d="M117 700V137H90v563zM104-10Q88-10 79-.5T70 23t9.5 23 24.5 9q16 0 25-9.5t9-22.5q0-15-9-24t-25-9" unicode="!"/><glyph d="m75 700-2-217H50l-2 217zm94 0-2-217h-23l-2 217z" horiz-adv-x="220" unicode="&quot;"/><glyph d="M423 154h113l-6-23H416L381 0h-25l35 131H184L149 0h-25l35 131H45l6 23h115l68 254H122l6 23h112l35 129h25l-35-129h207l35 129h25l-35-129h116l-6-23H491zM259 408l-68-254h207l68 254z" horiz-adv-x="658" unicode="#"/><glyph d="M415 141q0-69-45.5-110T245-12v-78h-25v78Q61-3 40 138l25 7q7-64 53-97.5T236 14q70 0 111 33.5t41 93.5q0 36-14 61.5t-42 40-53 22-62 15.5q-7 1-11 2-25 5-40 9.5T126.5 307t-38 25T64 370.5 53 427q0 62 42 101t117 43v79h25v-79q148-5 174-134l-26-7q-13 56-49.5 85.5T229 545q-71 0-110-32t-39-85q0-59 39-84.5T233 303q29-6 47.5-10.5t47-16.5 45-28 29.5-43.5 13-63.5" horiz-adv-x="455" unicode="$"/><glyph d="M155 214Q36 214 36 392t119 178 119-178-119-178m297 346L263 0h-29l189 560zM155 238q95 0 95 154t-95 154-95-154 95-154M533-7Q414-7 414 171q0 179 119 179t119-179Q652-7 533-7m0 24q95 0 95 154t-95 154-95-154 95-154" horiz-adv-x="688" unicode="%"/><glyph d="M481 280v-96q0-97-54.5-146.5T269-12q-99 0-152.5 43.5T63 148q0 62 37 100t91 45v2q-47 9-83 43t-36 93q0 66 47 103t136 37q53 0 96-12t80-47.5 48-92.5l-25-7q-31 133-198 133-157 0-157-112 0-55 41.5-90.5T257 307h317v-26zm-27 1H258q-74 0-121-34t-47-99q0-62 45.5-98T269 14q185 0 185 170z" horiz-adv-x="604" unicode="&amp;"/><glyph d="m75 700-2-217H50l-2 217z" horiz-adv-x="126" unicode="'"/><glyph d="m295 796 13-24q-109-40-165-154.5T87 294t56-323.5T308-184l-13-24Q173-164 116.5-40T60 294t56.5 334T295 796" horiz-adv-x="320" unicode="("/><glyph d="m25-208-13 24q109 40 165 154.5T233 294t-56 323.5T12 772l13 24q122-44 178.5-168T260 294 203.5-40 25-208" horiz-adv-x="320" unicode=")"/><glyph d="m276 527 85-124-21-14-87 122-87-122-21 14 85 124-140 45 8 23 142-43v148h26V552l142 43 8-23z" horiz-adv-x="506" unicode="*"/><glyph d="M515 281H348V102h-29v179H152v26h167v177h29V307h167z" horiz-adv-x="668" unicode="+"/><glyph d="M105-9q-17-4-28 4T66 19q0 32 34 32 35 0 35-42 0-30-19.5-65.5T62-105L48-92q25 10 41 36.5T105-9" horiz-adv-x="186" unicode=","/><glyph d="M475 281H112v26h363z" horiz-adv-x="588" unicode="-"/><glyph d="M93-10Q77-10 68-.5T59 23t9.5 23T93 55q16 0 25-9.5t9-22.5q0-15-9.5-24T93-10" horiz-adv-x="186" unicode="."/><glyph d="M418 700 60 0H30l358 700z" horiz-adv-x="448" unicode="/"/><glyph d="M254 571q105 0 159.5-76T468 280 413.5 64.5 254-12Q148-12 94 64T40 280q0 139 54 215t160 76m0-26q-94 0-140.5-69T67 280t46.5-196.5T254 14t140.5 69.5T441 280t-46.5 196T254 545" horiz-adv-x="508" unicode="0"/><glyph d="M190 0v447q0 18 1 39t1 32l1 12h-1l-9-10q-9-10-20.5-22T147 482l-79-82-18 18 141 142h26V0z" horiz-adv-x="307" unicode="1"/><glyph d="M51 0v31l212 174q72 59 102.5 102t30.5 94q0 62-42 103t-121 41q-77 0-116-38.5T75 412l-25 7q6 76 59 114t128 38q87 0 136.5-48T423 398q0-54-31-99.5T281 187L86 27l1-1h339V0z" horiz-adv-x="476" unicode="2"/><glyph d="M312 295v-3q52-7 85-43t33-95q0-75-53.5-120.5T241-12 103.5 33.5 40 150l24 7q10-68 58.5-105.5T244 14q77 0 117.5 41T402 156q0 62-43 93.5T239 281h-50v26h50q158 0 158 118 0 58-40 89t-115 31q-86 0-121.5-37T78 412l-25 7q9 78 61 115t132 37q88 0 133-40t45-103q0-53-31-89t-81-44" horiz-adv-x="470" unicode="3"/><glyph d="M367 0h-27v163H35v29l297 368h35V189h84v-26h-84zm-27 406v124h-1L63 190l1-1h276z" horiz-adv-x="501" unicode="4"/><glyph d="m94 294 1-1q17 26 59 48t99 22q85 0 139.5-51.5T447 175 392 39 252-12q-77 0-132 43.5T50 151l25 6q12-68 60.5-105.5T252 14q74 0 121 43.5T420 176q0 74-47.5 117.5T246 337q-62 0-101.5-25.5T91 251l-23 7 49 302h293v-26H137l-22-133q-3-18-6-35.5t-5.5-29.5-5-22-3.5-15z" horiz-adv-x="497" unicode="5"/><glyph d="m96 301 2-1q51 65 147 65 88 0 143-52t55-133q0-84-56.5-138T241-12q-88 0-143.5 54T42 184t62 169l160 207h33zM242 14q77 0 125 45.5T416 180q1 72-46.5 115.5T242 339q-79 0-126-43.5T69 179q0-74 47.5-119.5T242 14" horiz-adv-x="488" unicode="6"/><glyph d="M418 536 116 0H86l270 482q7 13 15.5 25.5T384 527l5 7-1 1q-38-1-71-1H30v26h388z" horiz-adv-x="443" unicode="7"/><glyph d="M40 148q0 64 42.5 102T183 292v2q-36 3-76.5 38T66 425q0 62 47.5 104T245 571q82 0 130.5-42T424 426q0-41-23-72.5T352.5 309 308 294v-2q57-4 99.5-42.5T450 148q0-72-56.5-116T245-12 96.5 32 40 148m52 276q0-55 43.5-87.5T245 305q69 1 111 34.5t42 85.5-41.5 86T245 545q-72 0-112.5-34T92 424M67 149q0-63 48-99t130-36 130 36 48 99q0 62-47.5 96T245 279t-130.5-34T67 149" horiz-adv-x="490" unicode="8"/><glyph d="m397 255-1 1q-60-66-153-66-89 0-143.5 52.5T45 379q0 85 56.5 138.5T248 571q89 0 146.5-52T452 377q0-55-26.5-107.5T335 140L215 0h-33zM248 545q-74 0-125-42T72 378q0-82 50.5-122T248 216q77 0 127 42t50 122q0 82-51 123.5T248 545" horiz-adv-x="497" unicode="9"/><glyph d="M93 349q-16 0-25 9.5T59 382t9.5 23 24.5 9q16 0 25-9.5t9-22.5q0-14-9.5-23.5T93 349m0-359Q77-10 68-.5T59 23t9.5 23T93 55q16 0 25-9.5t9-22.5q0-15-9.5-24T93-10" horiz-adv-x="186" unicode=":"/><glyph d="M93 349q-16 0-25 9.5T59 382t9.5 23 24.5 9q16 0 25-9.5t9-22.5q0-14-9.5-23.5T93 349M105-9q-17-4-28 4T66 19q0 32 34 32 35 0 35-42 0-30-19.5-65.5T62-105L48-92q25 10 41 36.5T105-9" horiz-adv-x="186" unicode=";"/><glyph d="M539 47 88 279v32l451 232v-30L114 296v-2L539 77z" horiz-adv-x="668" unicode="&lt;"/><glyph d="M515 358H152v26h363zm0-153H152v26h363z" horiz-adv-x="668" unicode="="/><glyph d="M554 294v2L129 513v30l451-232v-32L129 47v30z" horiz-adv-x="668" unicode="&gt;"/><glyph d="M248 137v182q128 48 180.5 94.5T481 526q0 65-45 113t-150 48q-176 0-216-163l-25 7q21 91 84 137t160 46q113 0 167-55.5T510 528q0-44-19-81t-54.5-63.5-72.5-45-87-36.5V137zm13-147q-16 0-25 9.5T227 23t9.5 23 24.5 9q16 0 25-9.5t9-22.5q0-15-9.5-24T261-10" horiz-adv-x="555" unicode="?"/><glyph d="M536 419V191q0-87 72-87 48 0 75 43t27 121q0 143-90.5 236.5T390 598q-138 0-228-93.5T72 264q0-146 85-239t226-93q154 0 233 79l20-16q-48-49-120.5-69T384-94Q230-94 137.5 7.5T45 265q0 155 98.5 257T391 624t247.5-102T737 267q0-88-34.5-138T608 79q-37 0-64 23t-31 65h-2q-16-42-52.5-65T375 79q-65 0-112.5 48.5T215 255q0 78 43.5 130T375 437q34 0 61-10t41.5-24.5T499 377t9-19h2v61zM375 105q61 0 95 38.5t40 98.5v30q0 62-37 100.5T375 411q-64 0-98.5-43T242 255t37-110 96-40" horiz-adv-x="782" unicode="@"/><glyph d="M552 230H163L59 0H30l315 700h25L685 0h-29zm-11 25-95 211q-13 29-35 80t-37 86l-16 36h-1l-15-36q-16-35-38-86t-35-80l-95-211z" horiz-adv-x="715" unicode="A"/><glyph d="M395 377v-3q27-2 55.5-12t57-30 47-57 18.5-85q0-93-61-141.5T343 0H90v700h220q96 0 151.5-45.5T517 534q0-70-36-108.5T395 377m-278 8h200q78 0 125.5 37.5T490 532q0 66-49 104t-135 38H117zm0-359h228q92 0 146.5 40.5T546 187t-60 126-144 46H117z" horiz-adv-x="618" unicode="B"/><glyph d="m701 197 25-7Q684 95 598 41.5T402-12Q249-12 147 88.5T45 352q0 165 101 263.5T403 714q115 0 196.5-52.5T716 530l-25-8q-10 22-27.5 45t-50 53-87 49T405 688q-147 0-240-90.5T72 352q0-154 94.5-246T402 14q98 0 178 48.5T701 197" horiz-adv-x="781" unicode="C"/><glyph d="M90 700h207q168 0 270.5-95T670 347q0-161-100.5-254T307 0H90zm27-674h190q147 0 241.5 84.5T643 347q0 154-95.5 240.5T297 674H117z" horiz-adv-x="715" unicode="D"/><glyph d="M90 0v700h446v-26H117V385h336v-26H117V26h419V0z" horiz-adv-x="591" unicode="E"/><glyph d="M536 674H117V377h336v-26H117V0H90v700h446z" horiz-adv-x="576" unicode="F"/><glyph d="M727 0h-26q0 46 .5 76.5t.5 43V134h-1q-15-21-36.5-41.5t-58-46.5-90-42T402-12Q249-12 147 88T45 351q0 165 102 264t258 99q115 0 196.5-52.5T718 530l-25-8q-10 22-27.5 45t-50 53-87 49T407 688q-148 0-241.5-90.5T72 353q0-155 94-247t236-92q106 0 188.5 50.5T701 173v142H472v26h255z" horiz-adv-x="797" unicode="G"/><glyph d="M576 0v359H117V0H90v700h27V385h459v315h27V0z" horiz-adv-x="693" unicode="H"/><glyph d="M90 0v700h27V0z" unicode="I"/><glyph d="M385 700V260q0-131-55.5-201.5T169-12Q67-12 0 74l14 24q60-84 156-84 91 0 139 62.5T357 256v444z" horiz-adv-x="470" unicode="J"/><glyph d="M561 0 264 402 117 253V0H90v700h27V383l-.5-32.5-.5-26.5v-36h1l138 141 269 271h34L284 422 593-1z" horiz-adv-x="613" unicode="K"/><glyph d="M90 0v700h27V26h403V0z" horiz-adv-x="560" unicode="L"/><glyph d="M676 0v442l.5 45.5 1 48.5.5 47 .5 39.5.5 27.5v11h-1l-3-7q-3-6-11-21.5T645 596t-30-56-42-75L407 172h-21L222 461q-23 41-43 77t-31 57.5-19 37-11 21.5l-3 7h-1v-11q0-10 .5-27.5t1-39.5.5-47 .5-48.5.5-45.5V0H90v700h28l278-497h1l278 497h28V0z" horiz-adv-x="793" unicode="M"/><glyph d="M596 0 115 665h-1v-5q0-5 .5-13t1-19.5.5-26 .5-30 .5-34V0H90v700h27L598 39h1v5q0 5-.5 13t-.5 19.5-.5 26-1 30-.5 33.5v534h27V0z" horiz-adv-x="713" unicode="N"/><glyph d="M45 351q0 162 103 262.5T403 714t255.5-100.5T762 351 658.5 88.5 403-12 148 88.5 45 351m27 0q0-154 94.5-245.5T403 14t237 91.5T735 351t-95 245.5T403 688t-236.5-91.5T72 351" horiz-adv-x="807" unicode="O"/><glyph d="M90 700h181q120 0 185.5-51T522 497q0-99-66-151t-185-52H117V0H90zm27-380h154q110 0 167 45t57 132q0 177-224 177H117z" horiz-adv-x="552" unicode="P"/><glyph d="M762 351q0-158-98.5-258T417-12v-120h-29v120Q241-7 143 93.5T45 351q0 162 103 262.5T403 714t255.5-100.5T762 351M403 14q142 0 237 91.5T735 351t-95 245.5T403 688t-236.5-91.5T72 351t94.5-245.5T403 14" horiz-adv-x="807" unicode="Q"/><glyph d="M491 0 314 303q-18-1-82-1H117V0H90v700h182q118 0 184-54t66-152q0-163-178-188L525 0zM117 327h160q218 0 218 167 0 91-59.5 135.5T270 674H117z" horiz-adv-x="575" unicode="R"/><glyph d="m40 190 26 7q3-92 68.5-137.5T302 14q96 0 149 40.5T504 175q0 27-6.5 49T482 261.5 455.5 290 426 310.5t-36.5 15-36 10.5-38.5 8-34 7q-39 9-61 14.5T163.5 386 110 418.5 76 467t-15 70q0 83 57 130t161 47q96 0 158.5-42T519 545l-26-7q-34 150-213 150-93 0-142.5-39T88 540q0-41 16-70.5t48.5-47 62-27T290 377q31-6 47.5-9.5t46-12 46.5-17 39-24 33.5-34 20-45.5 8.5-59q0-92-60.5-140T299-12q-47 0-88 9t-79.5 30.5-63 63T40 190" horiz-adv-x="571" unicode="S"/><glyph d="M583 674H325V0h-27v674H40v26h543z" horiz-adv-x="623" unicode="T"/><glyph d="M607 700V280q0-292-264-292Q80-12 80 280v420h27V276q0-262 236-262 121 0 179 65.5T580 276v424z" horiz-adv-x="687" unicode="U"/><glyph d="M339 0h-23L20 700h28l166-390q18-43 36.5-87t31.5-76 23.5-58T322 49l5-14h1l6 13q5 14 15 39.5t23 57 31 75 36 85.5l168 395h28z" horiz-adv-x="655" unicode="V"/><glyph d="M633 0 524 333q-15 47-31.5 101.5T467 519l-9 30h-1l-9-31q-9-30-25.5-86T389 326L282 0h-23L20 700h27l121-354q18-53 43.5-129t42-124.5T270 43h1q0 1 14.5 48.5t35.5 114L354 310l91 278h25l91-278 33-104.5 35.5-114L644 43h1q0 1 16 49.5T701 215t42 125l125 360h27L656 0z" horiz-adv-x="915" unicode="W"/><glyph d="M578 0 420 210q-32 42-59 79t-36 49l-9 11h-1q-3 0-108-141L53 0H20l278 367L48 700h32l151-201q86-115 88-115h1q1 0 84 115l147 201h32L335 365 611 0z" horiz-adv-x="631" unicode="X"/><glyph d="M324 322V0h-27v322L20 700h32l187-255 72-97h1l8 11q8 11 25 34.5t35 48.5l190 258h32z" horiz-adv-x="622" unicode="Y"/><glyph d="M601 676 161 126q-18-23-34-42.5T103 54 89 37t-8-9l-2-3 1-1h4q4 0 10.5.5t15.5 1 21 .5h470V0H45v24l442 552q24 31 45 55.5t29 33.5l8 9-1 1h-6l-7-.5-10.5-.5H55v26h546z" horiz-adv-x="646" unicode="Z"/><glyph d="M279-182v-26H95V796h184v-26H125v-952z" horiz-adv-x="320" unicode="["/><glyph d="M418 0h-30L30 700h30z" horiz-adv-x="448" unicode="\"/><glyph d="M41 770v26h184V-208H41v26h154v952z" horiz-adv-x="320" unicode="]"/><glyph d="M334 685 87 365l-22 15 253 328h32l253-328-22-15z" horiz-adv-x="668" unicode="^"/><glyph d="M633-21H90V0h543z" horiz-adv-x="723" unicode="_"/><glyph d="m214 902 99-148h-30l-96 138z" horiz-adv-x="500" unicode="`"/><glyph d="M440 182H138L59 0H30l247 560h25L549 0h-29zm-11 26-70 160q-68 155-68 163h-2q0-4-73-170l-67-153z" horiz-adv-x="579" unicode="a"/><glyph d="M345 299v-3q53-4 98-39.5T488 152 438.5 41.5 308 0H90v560h196q71 0 116-38.5t45-94.5q0-105-102-128m-228 8h164q54 0 96.5 30t42.5 87q0 47-38 78.5T282 534H117zm0-281h192q66 0 109 33t43 91q0 60-45.5 95.5T303 281H117z" horiz-adv-x="533" unicode="b"/><glyph d="m575 158 26-7Q565 76 494.5 32T336-12q-124 0-207.5 83T45 280q0 125 83.5 208T335 571q83 0 154-41t106-124l-26-7q-76 146-231 146-116 0-191-74T72 280t75-191.5T336 14q81 0 143 39.5T575 158" horiz-adv-x="656" unicode="c"/><glyph d="M90 560h170q138 0 222.5-76.5T567 278q0-128-83-203T268 0H90zm27-534h150q120 0 196.5 66.5T540 278q0 120-77 188t-204 68H117z" horiz-adv-x="612" unicode="d"/><glyph d="M90 0v560h363v-26H117V307h270v-26H117V26h341V0z" horiz-adv-x="513" unicode="e"/><glyph d="M453 534H117V299h254v-26H117V0H90v560h363z" horiz-adv-x="493" unicode="f"/><glyph d="M605 0h-26v56.5l.5 18.5.5 13.5V104h-1Q488-12 340-12q-129 0-212 82.5T45 279t83 209 205 83q80 0 152.5-39.5T595 406l-26-7q-25 58-84.5 102T336 545q-114 0-189-74.5T72 279t75-191 190-74q87 0 152.5 40.5T579 142v97H393v26h212z" horiz-adv-x="675" unicode="g"/><glyph d="M523 0h-27v281H117V0H90v560h27V307h379v253h27z" horiz-adv-x="613" unicode="h"/><glyph d="M90 0v560h27V0z" unicode="i"/><glyph d="M317 560V206q0-105-46-161.5T140-12Q52-12 0 53l15 21q47-60 125-60 73 0 111.5 48.5T290 203v357z" horiz-adv-x="402" unicode="j"/><glyph d="M478 0 237 317 117 200V0H90v560h27V309.5l-.5-26-.5-21.5v-29h1q53 53 93 92l240 235h36L256 336 511 0z" horiz-adv-x="531" unicode="k"/><glyph d="M90 0v560h27V26h321V0z" horiz-adv-x="478" unicode="l"/><glyph d="M569 0v316l1 206h-1L354 138h-24L116 523h-1v-9q0-8 .5-22t.5-32v-38l.5-39 .5-37V0H90v560h34l145-258q21-39 40-73.5t26-48.5l7-13h2l7 13q7 14 26 49t41 74l144 257h34V0z" horiz-adv-x="686" unicode="m"/><glyph d="M523 0h-26L116 521h-1v-4q0-4 .5-10.5t.5-15.5v-21l.5-24 .5-27V0H90v560h27L497 44h1v4q0 4-.5 10.5t-.5 15v20l-.5 24-.5 26.5v416h27z" horiz-adv-x="613" unicode="n"/><glyph d="M45 279q0 126 83.5 209T333 571t205-83.5T622 279 538 71 333-12 128.5 71 45 279m27 0q0-116 75-190.5T333 14t186.5 74.5T595 279q0 117-75.5 191.5T333 545t-186-74.5T72 279" horiz-adv-x="667" unicode="o"/><glyph d="M90 560h151q101 0 154-42t53-117-53-116.5T241 243H117V0H90zm27-291h125q87 0 133 35t46 97q0 63-46 98t-133 35H117z" horiz-adv-x="478" unicode="p"/><glyph d="M622 279q0-121-79.5-203.5T346-12v-104h-27v104Q203-7 124 75.5T45 279q0 126 83.5 209T333 571t205-83.5T622 279M333 14q111 0 186.5 74.5T595 279q0 117-75.5 191.5T333 545t-186-74.5T72 279q0-116 75-190.5T333 14" horiz-adv-x="667" unicode="q"/><glyph d="M426 0 273 251q-30-2-69-2h-87V0H90v560h152q98 0 152-39t54-114q0-65-39-104.5T302 254L457 0zM117 275h124q180 0 180 130 0 129-180 129H117z" horiz-adv-x="507" unicode="r"/><glyph d="m40 138 25 7q7-64 56-97.5T247 14q75 0 118 32t43 95q0 30-10.5 52.5t-27 36-40 23T283 268t-51 11q-11 2-17 3-26 5-42.5 9.5T131 307t-40 25-26 39-11 56q0 68 47.5 106T236 571q166 0 195-134l-26-7q-13 56-52 85.5T239 545q-76 0-117-30.5T81 428q0-59 41.5-84.5T243 303q91-17 128-40 64-41 64-122 0-74-50-113.5T247-12q-34 0-64 6.5T121.5 16t-53 46.5T40 138" horiz-adv-x="475" unicode="s"/><glyph d="M481 534H274V0h-27v534H40v26h441z" horiz-adv-x="521" unicode="t"/><glyph d="M516 560V221q0-233-219-233Q80-12 80 221v339h27V218q0-204 191-204t191 204v342z" horiz-adv-x="596" unicode="u"/><glyph d="M300 0h-24L20 560h29l141-307q19-42 36.5-80t28-62T273 69.5 284 44l4-9h1l3 8q4 8 11.5 25t18 40.5 27.5 61 37 80.5l143 310h28z" horiz-adv-x="577" unicode="v"/><glyph d="m523 0-78 235q-17 51-33 101t-23 73l-7 23h-1l-7-24q-8-23-24-73t-33-101L240 0h-24L20 560h28l101-291q22-62 41.5-121T218 62l9-26h1l8 26q8 25 25 77t33 101l76 232h23l76-232q16-49 33-101t25-77l8-26h1l8 26q9 27 28.5 86T614 269l101 291h28L547 0z" horiz-adv-x="763" unicode="w"/><glyph d="M487 0 362 157q-27 34-52.5 66T276 265l-8 10h-1q-1 0-95-121L52 0H20l230 293L40 560h32l100-126q27-34 53-67t35-45l10-12h1l9 12q10 13 36.5 47t53.5 69l95 122h32L286 291 520 0z" horiz-adv-x="540" unicode="x"/><glyph d="M268 0h-27v256L20 560h32l110-152 92-126h1q3 3 94 127l109 151h31L268 256z" horiz-adv-x="509" unicode="y"/><glyph d="M502 536 189 155 80 26l1-1q22 1 63 1h358V0H45v24l322 388q36 43 62 74t33 40l7 8H53v26h449z" horiz-adv-x="547" unicode="z"/><glyph d="M183 606V452q0-126-65-158 11-5 23-15t27-48.5 15-95.5V-18q0-92 35.5-128t98.5-36v-26q-76 0-118.5 45.5T156-8v148q0 38-6 66t-13.5 41.5-18 21.5-16 9.5T91 281h-1v26q27 5 41 26 25 36 25 115v148q0 109 42.5 154.5T317 796v-26q-63 0-98.5-36T183 606" horiz-adv-x="360" unicode="{"/><glyph d="M60 775h27V-74H60z" horiz-adv-x="147" unicode="|"/><glyph d="M177-18v154q0 126 65 158-11 5-23 15t-27 48.5-15 95.5v153q0 92-35.5 128T43 770v26q76 0 118.5-45.5T204 596V448q0-38 6-66t13.5-41.5 18-21.5 16-9.5T269 307h1v-26q-27-5-41-26-25-36-25-115V-8q0-109-42.5-154.5T43-208v26q63 0 98.5 36T177-18" horiz-adv-x="360" unicode="}"/><glyph d="m531 334 5-26q-35-45-107-45-35 0-96 22.5T235 308q-51 0-96-48l-7 25q43 50 108 50 35 0 95.5-22.5T433 290q54 0 98 44" horiz-adv-x="668" unicode="~"/><glyph d="M104 710q16 0 25-9.5t9-23.5-9.5-23-24.5-9q-16 0-25 9.5T70 677q0 15 9 24t25 9M91 0v563h27V0z" unicode="¡"/><glyph d="M299 49q68 0 122 33t82 92l25-8q-29-65-86.5-102T313 23V-88h-25V23q-107 4-175 74T45 279q0 111 67 181.5T287 536v104h26V536q74-3 134-42t87-115l-25-7q-23 62-76 100t-129 38q-104 0-168-63T72 280t64-167.5T299 49" horiz-adv-x="589" unicode="¢"/><glyph d="M452 26V0H36v26q45 8 60.5 38.5T112 148q0 37-8 123H36v26h65q-8 82-8 107 0 86 45.5 126.5T261 571q155 0 175-149l-25-7q-10 62-44.5 96T261 545q-141 0-141-140 0-24 8-108h222v-26H131q8-84 8-122 0-105-56-124l1-1h32q31 1 80 1.5t92 .5z" horiz-adv-x="496" unicode="£"/><glyph d="m574 530-72-72q73-75 73-179 0-93-61-165l77-78-18-18-76 77q-77-72-179-72-100 0-179 72L62 18 45 36l78 79q-61 71-61 164 0 104 72 179l-73 72 18 18 75-73q73 61 164 61 94 0 165-60l74 72zm-256-20q-96 0-162.5-67.5T89 279t66.5-163T318 49t163 67 67 163-67 163.5T318 510" horiz-adv-x="636" unicode="¤"/><glyph d="M300 335h113v-26H283l-35-53v-7h165v-26H248V0h-27v223H56v26h165v7l-35 53H56v26h113L20 560h32l121-185 61-93h1q6 6 62 93l121 185h31z" horiz-adv-x="469" unicode="¥"/><glyph d="M87 490H60v285h27zm0-564H60v285h27z" horiz-adv-x="147" unicode="¦"/><glyph d="M460 249q52-15 78.5-42.5T565 131q0-73-59-108T344-12q-42 0-78.5 5.5T189 13t-65 43.5T95 129l26 7q8-122 222-122 195 0 195 117 0 25-10.5 43t-25 29-48 20.5-60.5 14-83 13.5q-29 4-46 7.5T219.5 269t-46 16-36 22-27.5 32-9 43q0 45 32.5 72.5T220 492q-109 32-109 109 0 33 18.5 56.5t50 35T244 709t70 5q204 0 229-143l-25-7q-15 68-68 95.5T310 687q-172 0-172-86 0-18 6.5-31.5t21-24 30-17.5 43-13.5 49-10.5 58.5-10q50-8 75-13t59-15 49-22 26.5-32.5T567 363q0-90-107-114M128 381q0-26 14-44t45.5-30 61.5-18.5 83-14.5q50-7 78-13 59 8 94.5 33t35.5 66q0 20-7 35.5T509.5 422 478 440.5t-42.5 13-44 8.5-47.5 7q-5 1-7.5 1t-7 1-7.5 1q-45 7-53 9-141-17-141-100" horiz-adv-x="668" unicode="§"/><glyph d="M162 785q-11 0-19.5 8.5T134 814t8.5 20.5T162 843q12 0 20.5-8.5T191 814t-8.5-20.5T162 785m174 0q-12 0-20.5 8.5T307 814t8.5 20.5T336 843t20.5-8.5T365 814t-8.5-20.5T336 785" horiz-adv-x="500" unicode="¨"/><glyph d="M408 629q153 0 258.5-103.5T772 265 666.5 4.5 408-99Q256-99 150.5 4.5T45 265t105.5 260.5T408 629m0-26q-145 0-240.5-93T72 266t95.5-245T408-73t241 93.5T745 266t-96 244.5T408 603m146-414 25-8q-23-49-71-77.5T400 75q-84 0-138 54t-54 137q0 85 56 138t139 53q60 0 108.5-29.5T577 342l-25-7q-6 30-43 63.5T405 432q-75 0-122.5-45T235 267q0-74 46-120t120-46q52 0 92 24t61 64" horiz-adv-x="817" unicode="©"/><glyph d="M62 235H35l147 325h19l147-325h-27l-43 94H105zm130 290h-1l-5-12q-5-12-15.5-37T149 427l-34-74h153l-34 74q-11 24-21.5 49T197 513zM35 164h313v-26H35z" horiz-adv-x="383" unicode="ª"/><glyph d="m295 511 19-18L96 278v-2L314 61l-19-18L60 277zm216 0 19-18-218-215v-2L530 61l-19-18-235 234z" horiz-adv-x="590" unicode="«"/><glyph d="M475 281H112v26h363z" horiz-adv-x="588" unicode="­"/><glyph d="M408 629q153 0 258.5-103.5T772 265 666.5 4.5 408-99Q256-99 150.5 4.5T45 265t105.5 260.5T408 629m0-26q-145 0-240.5-93T72 266t95.5-245T408-73t241 93.5T745 266t-96 244.5T408 603M518 82l-97 162q-18-2-43-2h-51V82h-27v369h104q64 0 100-26.5t36-76.5q0-42-24.5-68T448 247l99-165zM327 268h77q109 0 109 78 0 79-109 79h-77z" horiz-adv-x="817" unicode="®"/><glyph d="M383 787H117v25h266z" horiz-adv-x="500" unicode="¯"/><glyph d="M117 604q-42 0-69.5 28T20 702t27.5 70 69.5 28 69.5-28 27.5-70-27.5-70-69.5-28m0 25q32 0 52.5 21t20.5 52q0 32-20 52.5T117 775t-53-20.5T44 702q0-31 20.5-52t52.5-21" horiz-adv-x="234" unicode="°"/><glyph d="M515 321v-26H348V116h-29v179H152v26h167v177h29V321zM152 26h363V0H152z" horiz-adv-x="668" unicode="±"/><glyph d="M33 469v26l185 150q60 49 60 110 0 40-27 64.5T174 844q-48 0-73-19.5T65 761l-24 7q22 102 133 102 60 0 95.5-32.5T305 753q0-68-79-132-28-23-66.5-53t-65-50.5T66 495l1-3q21 3 89 3h152v-26z" horiz-adv-x="340" unicode="²"/><glyph d="M217 675v-3q41-5 67-31t26-67q0-50-38-81.5T178 461q-59 0-101 34.5T31 586l28 6q1-46 34-75.5t86-29.5q50 0 77 25.5t27 61.5q0 38-30 62.5T174 661h-37v24h37q48 0 77 23.5t29 58.5q0 31-25 54t-83 23q-52 0-74-20.5T67 761l-24 7q17 102 132 102 66 0 99-29t33-72q0-39-26-65.5T217 675" horiz-adv-x="340" unicode="³"/><glyph d="M217 754h-30l99 148 27-10z" horiz-adv-x="500" unicode="´"/><glyph d="M391-140v674H287v-674h-27v354q-108 0-161.5 47.5T45 387t53.5 125.5T260 560h158v-700z" horiz-adv-x="508" unicode="¶"/><glyph d="M93 249q-16 0-25 9.5T59 282t9.5 23 24.5 9q16 0 25-9.5t9-22.5q0-14-9.5-23.5T93 249" horiz-adv-x="186" unicode="·"/><glyph d="M354-97q0-34-26.5-53T253-169q-49 0-77 18v27q27-19 76-19 75 0 75 47 0 27-25.5 39T223-43V0h27v-22q104-10 104-75" horiz-adv-x="500" unicode="¸"/><glyph d="M293 469H62v26h102v260l.5 24 1 23 .5 18v8h-2l-30-30-56-55-18 18 105 101h26V495h102z" horiz-adv-x="340" unicode="¹"/><glyph d="M35 396q0 75 50.5 125T209 571t124-50 51-125q0-74-51-124t-124-50-123.5 50T35 396m26 0q0-64 42.5-106T209 248t105.5 42T357 396t-42.5 106.5T209 545t-105.5-42.5T61 396m314-258H46v26h329z" horiz-adv-x="419" unicode="º"/><glyph d="M79 43 60 61l218 215v2L60 493l19 18 235-234zm216 0-19 18 218 215v2L276 493l19 18 235-234z" horiz-adv-x="590" unicode="»"/><glyph d="M293 307H62v26h102v260l.5 24 1 23 .5 18v8h-2l-30-30-56-55-18 18 105 101h26V333h102zm225 393L308 0h-28l209 700zM703 0h-27v111H477v30l199 252h27V137h77v-26h-77zm-27 137v103q0 14 .5 28t.5 25 .5 21 1.5 17.5 1 13v8.5l1 3h-2q-1 0-86-108.5T508 138l1-2h13l13.5.5 17.5.5z" horiz-adv-x="798" unicode="¼"/><glyph d="M293 307H62v26h102v260l.5 24 1 23 .5 18v8h-2l-30-30-56-55-18 18 105 101h26V333h102zm225 393L308 0h-28l209 700zM491 0v26l185 150q60 49 60 110 0 40-27 64.5T632 375q-48 0-73-19.5T523 292l-24 7q22 102 133 102 60 0 95.5-32.5T763 284q0-68-79-132-28-23-66.5-53t-65-50.5T524 26l1-3q21 3 89 3h152V0z" horiz-adv-x="798" unicode="½"/><glyph d="M217 513v-3q41-5 67-31t26-67q0-50-38-81.5T178 299q-59 0-101 34.5T31 424l28 6q1-46 34-75.5t86-29.5q50 0 77 25.5t27 61.5q0 38-30 62.5T174 499h-37v24h37q48 0 77 23.5t29 58.5q0 31-25 54t-83 23q-52 0-74-20.5T67 599l-24 7q17 102 132 102 66 0 99-29t33-72q0-39-26-65.5T217 513m301 187L308 0h-28l209 700zM703 0h-27v111H477v30l199 252h27V137h77v-26h-77zm-27 137v103q0 14 .5 28t.5 25 .5 21 1.5 17.5 1 13v8.5l1 3h-2q-1 0-86-108.5T508 138l1-2h13l13.5.5 17.5.5z" horiz-adv-x="798" unicode="¾"/><glyph d="M294 710q16 0 25-9.5t9-23.5-9.5-23-24.5-9q-16 0-25 9.5t-9 22.5q0 15 9 24t25 9m13-147V381q-128-48-180.5-94.5T74 174q0-65 45-113t150-48q176 0 216 163l25-7q-21-91-84-137T266-14Q153-14 99 41.5T45 172q0 44 19 81t54.5 63.5 72.5 45 87 36.5v165z" horiz-adv-x="555" unicode="¿"/><glyph d="m355 754-96 138 27 10 99-148zm197-524H163L59 0H30l315 700h25L685 0h-29zm-11 25-95 211q-13 29-35 80t-37 86l-16 36h-1l-15-36q-16-35-38-86t-35-80l-95-211z" horiz-adv-x="715" unicode="À"/><glyph d="M350 754h-30l99 148 27-10zm202-524H163L59 0H30l315 700h25L685 0h-29zm-11 25-95 211q-13 29-35 80t-37 86l-16 36h-1l-15-36q-16-35-38-86t-35-80l-95-211z" horiz-adv-x="715" unicode="Á"/><glyph d="m253 767-17 18 121 110 120-111-17-18-103 96zm299-537H163L59 0H30l315 700h25L685 0h-29zm-11 25-95 211q-13 29-35 80t-37 86l-16 36h-1l-15-36q-16-35-38-86t-35-80l-95-211z" horiz-adv-x="715" unicode="Â"/><glyph d="M289 824q-40 0-60-29l-12 20 3 3q3 4 4 5.5t4.5 5 6 5.5 7 5 9 5 10.5 3.5 12.5 2.5 14.5 1q25 0 64-18.5t67-18.5q35 0 58 25l12-20q-28-32-71-32-26 0-65.5 18.5T289 824m263-594H163L59 0H30l315 700h25L685 0h-29zm-11 25-95 211q-13 29-35 80t-37 86l-16 36h-1l-15-36q-16-35-38-86t-35-80l-95-211z" horiz-adv-x="715" unicode="Ã"/><glyph d="M270 785q-11 0-19.5 8.5T242 814t8.5 20.5T270 843q12 0 20.5-8.5T299 814t-8.5-20.5T270 785m174 0q-12 0-20.5 8.5T415 814t8.5 20.5T444 843t20.5-8.5T473 814t-8.5-20.5T444 785m108-555H163L59 0H30l315 700h25L685 0h-29zm-11 25-95 211q-13 29-35 80t-37 86l-16 36h-1l-15-36q-16-35-38-86t-35-80l-95-211z" horiz-adv-x="715" unicode="Ä"/><glyph d="M357 744q-35 0-56.5 22T279 820t21.5 54 56.5 22 56.5-22 21.5-54-21.5-54-56.5-22m0 129q-24 0-39-15t-15-38 15-38 39-15 39 15 15 38-15 38-39 15m195-643H163L59 0H30l315 700h25L685 0h-29zm-11 25-95 211q-13 29-35 80t-37 86l-16 36h-1l-15-36q-16-35-38-86t-35-80l-95-211z" horiz-adv-x="715" unicode="Å"/><glyph d="M497 674V385h336v-26H497V26h419V0H470v230H162L59 0H30l316 700h570v-26zm-27-419v419H361L173 255z" horiz-adv-x="971" unicode="Æ"/><glyph d="m701 197 25-7Q685 97 602 43.5T412-12v-10q104-10 104-75 0-34-26.5-53T415-169q-49 0-77 18v27q27-19 76-19 75 0 75 47 0 27-25.5 39T385-43v31Q238-6 141.5 93.5T45 352q0 165 101 263.5T403 714q115 0 196.5-52.5T716 530l-25-8q-10 22-27.5 45t-50 53-87 49T405 688q-147 0-240-90.5T72 352q0-154 94.5-246T402 14q98 0 178 48.5T701 197" horiz-adv-x="781" unicode="Ç"/><glyph d="m247 902 99-148h-30l-96 138zM90 0v700h446v-26H117V385h336v-26H117V26h419V0z" horiz-adv-x="591" unicode="È"/><glyph d="M311 754h-30l99 148 27-10zM90 0v700h446v-26H117V385h336v-26H117V26h419V0z" horiz-adv-x="591" unicode="É"/><glyph d="m438 784-17-18-103 96-104-95-17 18 121 110zM90 0v700h446v-26H117V385h336v-26H117V26h419V0z" horiz-adv-x="591" unicode="Ê"/><glyph d="M231 785q-11 0-19.5 8.5T203 814t8.5 20.5T231 843q12 0 20.5-8.5T260 814t-8.5-20.5T231 785m174 0q-12 0-20.5 8.5T376 814t8.5 20.5T405 843t20.5-8.5T434 814t-8.5-20.5T405 785M90 0v700h446v-26H117V385h336v-26H117V26h419V0z" horiz-adv-x="591" unicode="Ë"/><glyph d="m33 902 99-148h-30L6 892zM90 0v700h27V0z" unicode="Ì"/><glyph d="M97 754H67l99 148 27-10zM90 0v700h27V0z" unicode="Í"/><glyph d="m205 784-17-18-84 92-84-91-17 18 101 110zM90 0v700h27V0z" unicode="Î"/><glyph d="M57 785q-11 0-19.5 8.5T29 814t8.5 20.5T57 843q12 0 20.5-8.5T86 814t-8.5-20.5T57 785m94 0q-12 0-20.5 8.5T122 814t8.5 20.5T151 843t20.5-8.5T180 814t-8.5-20.5T151 785M90 0v700h27V0z" unicode="Ï"/><glyph d="M90 700h207q168 0 270.5-95T670 347q0-161-100.5-254T307 0H90v359H12v26h78zm27-674h190q147 0 241.5 84.5T643 347q0 154-95.5 240.5T297 674H117V385h198v-26H117z" horiz-adv-x="715" unicode="Ð"/><glyph d="m486 839 12-20q-28-32-71-32-26 0-65.5 18.5T298 824q-40 0-60-29l-12 20 3 3q3 4 4 5.5t4.5 5 6 5.5 7 5 9 5 10.5 3.5 12.5 2.5 14.5 1q25 0 64-18.5t67-18.5q35 0 58 25M596 0 115 665h-1v-5q0-5 .5-13t1-19.5.5-26 .5-30 .5-34V0H90v700h27L598 39h1v5q0 5-.5 13t-.5 19.5-.5 26-1 30-.5 33.5v534h27V0z" horiz-adv-x="713" unicode="Ñ"/><glyph d="m333 902 99-148h-30l-96 138zM45 351q0 162 103 262.5T403 714t255.5-100.5T762 351 658.5 88.5 403-12 148 88.5 45 351m27 0q0-154 94.5-245.5T403 14t237 91.5T735 351t-95 245.5T403 688t-236.5-91.5T72 351" horiz-adv-x="807" unicode="Ò"/><glyph d="M397 754h-30l99 148 27-10zM45 351q0 162 103 262.5T403 714t255.5-100.5T762 351 658.5 88.5 403-12 148 88.5 45 351m27 0q0-154 94.5-245.5T403 14t237 91.5T735 351t-95 245.5T403 688t-236.5-91.5T72 351" horiz-adv-x="807" unicode="Ó"/><glyph d="m524 784-17-18-103 96-104-95-17 18 121 110zM45 351q0 162 103 262.5T403 714t255.5-100.5T762 351 658.5 88.5 403-12 148 88.5 45 351m27 0q0-154 94.5-245.5T403 14t237 91.5T735 351t-95 245.5T403 688t-236.5-91.5T72 351" horiz-adv-x="807" unicode="Ô"/><glyph d="m524 839 12-20q-28-32-71-32-26 0-65.5 18.5T336 824q-40 0-60-29l-12 20 3 3q3 4 4 5.5t4.5 5 6 5.5 7 5 9 5 10.5 3.5 12.5 2.5 14.5 1q25 0 64-18.5t67-18.5q35 0 58 25M45 351q0 162 103 262.5T403 714t255.5-100.5T762 351 658.5 88.5 403-12 148 88.5 45 351m27 0q0-154 94.5-245.5T403 14t237 91.5T735 351t-95 245.5T403 688t-236.5-91.5T72 351" horiz-adv-x="807" unicode="Õ"/><glyph d="M317 785q-11 0-19.5 8.5T289 814t8.5 20.5T317 843q12 0 20.5-8.5T346 814t-8.5-20.5T317 785m174 0q-12 0-20.5 8.5T462 814t8.5 20.5T491 843t20.5-8.5T520 814t-8.5-20.5T491 785M45 351q0 162 103 262.5T403 714t255.5-100.5T762 351 658.5 88.5 403-12 148 88.5 45 351m27 0q0-154 94.5-245.5T403 14t237 91.5T735 351t-95 245.5T403 688t-236.5-91.5T72 351" horiz-adv-x="807" unicode="Ö"/><glyph d="m352 296 133-133-18-17-133 133-133-133-17 17 133 133-133 134 17 17 133-133 133 132 17-17z" horiz-adv-x="668" unicode="×"/><glyph d="m706 724-69-91q125-105 125-282 0-162-103.5-262.5T403-12q-118 0-208 62l-72-94-19 15 71 94Q45 169 45 351q0 162 103 262.5T403 714q122 0 215-67l69 91zM72 351q0-173 118-266l413 542q-85 61-200 61-142 0-236.5-91.5T72 351M403 14q142 0 237 91.5T735 351q0 167-113 262L210 70q84-56 193-56" horiz-adv-x="807" unicode="Ø"/><glyph d="m271 902 99-148h-30l-96 138zm336-202V280q0-292-264-292Q80-12 80 280v420h27V276q0-262 236-262 121 0 179 65.5T580 276v424z" horiz-adv-x="687" unicode="Ù"/><glyph d="M335 754h-30l99 148 27-10zm272-54V280q0-292-264-292Q80-12 80 280v420h27V276q0-262 236-262 121 0 179 65.5T580 276v424z" horiz-adv-x="687" unicode="Ú"/><glyph d="m462 784-17-18-103 96-104-95-17 18 121 110zm145-84V280q0-292-264-292Q80-12 80 280v420h27V276q0-262 236-262 121 0 179 65.5T580 276v424z" horiz-adv-x="687" unicode="Û"/><glyph d="M255 785q-11 0-19.5 8.5T227 814t8.5 20.5T255 843q12 0 20.5-8.5T284 814t-8.5-20.5T255 785m174 0q-12 0-20.5 8.5T400 814t8.5 20.5T429 843t20.5-8.5T458 814t-8.5-20.5T429 785m178-85V280q0-292-264-292Q80-12 80 280v420h27V276q0-262 236-262 121 0 179 65.5T580 276v424z" horiz-adv-x="687" unicode="Ü"/><glyph d="M306 754h-30l99 148 27-10zm18-432V0h-27v322L20 700h32l187-255 72-97h1l8 11q8 11 25 34.5t35 48.5l190 258h32z" horiz-adv-x="622" unicode="Ý"/><glyph d="M117 544h143q118 0 181-48.5T504 355t-63-140-181-48H117V0H90v700h27zm0-351h143q217 0 217 162 0 163-217 163H117z" horiz-adv-x="534" unicode="Þ"/><glyph d="M336 331h7q80 0 132.5-44T528 165 477 37.5 345-12q-80 0-135 43l15 21q48-39 119-39 69 0 113 42t44 108q0 64-41.5 104T350 307h-44v27l118 199-1 1H117V0H90v560h381L336 332z" horiz-adv-x="563" unicode="ß"/><glyph d="m288 614-96 138 27 10 99-148zm152-432H138L59 0H30l247 560h25L549 0h-29zm-11 26-70 160q-68 155-68 163h-2q0-4-73-170l-67-153z" horiz-adv-x="579" unicode="à"/><glyph d="M283 614h-30l99 148 27-10zm157-432H138L59 0H30l247 560h25L549 0h-29zm-11 26-70 160q-68 155-68 163h-2q0-4-73-170l-67-153z" horiz-adv-x="579" unicode="á"/><glyph d="m206 627-17 18 101 110 101-111-17-18-84 92zm234-445H138L59 0H30l247 560h25L549 0h-29zm-11 26-70 160q-68 155-68 163h-2q0-4-73-170l-67-153z" horiz-adv-x="579" unicode="â"/><glyph d="M225 684q-33 0-50-29l-11 22q24 34 62 34 24 0 59.5-18.5T346 674q8 0 14.5 1.5t11 3 8.5 5 6 5 5 5.5 4 5l11-22q-23-30-61-30-25 0-61.5 18.5T225 684m215-502H138L59 0H30l247 560h25L549 0h-29zm-11 26-70 160q-68 155-68 163h-2q0-4-73-170l-67-153z" horiz-adv-x="579" unicode="ã"/><glyph d="M203 645q-11 0-19.5 8.5T175 674t8.5 20.5T203 703q12 0 20.5-8.5T232 674t-8.5-20.5T203 645m174 0q-12 0-20.5 8.5T348 674t8.5 20.5T377 703t20.5-8.5T406 674t-8.5-20.5T377 645m63-463H138L59 0H30l247 560h25L549 0h-29zm-11 26-70 160q-68 155-68 163h-2q0-4-73-170l-67-153z" horiz-adv-x="579" unicode="ä"/><glyph d="M290 604q-35 0-56.5 22T212 680t21.5 54 56.5 22 56.5-22 21.5-54-21.5-54-56.5-22m0 129q-24 0-39-15t-15-38 15-38 39-15 39 15 15 38-15 38-39 15m150-551H138L59 0H30l247 560h25L549 0h-29zm-11 26-70 160q-68 155-68 163h-2q0-4-73-170l-67-153z" horiz-adv-x="579" unicode="å"/><glyph d="M745 26V0H377v182H138L59 0H30l247 560h463v-26H404V307h270v-26H404V26zM377 208v326h-85L150 208z" horiz-adv-x="800" unicode="æ"/><glyph d="m575 158 26-7Q567 80 501 36T353-12v-13q104-10 104-75 0-34-26.5-53T356-172q-49 0-77 18v27q27-19 76-19 75 0 75 47 0 27-25.5 39T326-46v34Q206-8 125.5 74.5T45 280q0 125 83.5 208T335 571q83 0 154-41t106-124l-26-7q-76 146-231 146-116 0-191-74T72 280t75-191.5T336 14q81 0 143 39.5T575 158" horiz-adv-x="656" unicode="ç"/><glyph d="m202 762 99-148h-30l-96 138zM90 0v560h363v-26H117V307h270v-26H117V26h341V0z" horiz-adv-x="513" unicode="è"/><glyph d="M266 614h-30l99 148 27-10zM90 0v560h363v-26H117V307h270v-26H117V26h341V0z" horiz-adv-x="513" unicode="é"/><glyph d="m393 644-17-18-103 96-104-95-17 18 121 110zM90 0v560h363v-26H117V307h270v-26H117V26h341V0z" horiz-adv-x="513" unicode="ê"/><glyph d="M186 645q-11 0-19.5 8.5T158 674t8.5 20.5T186 703q12 0 20.5-8.5T215 674t-8.5-20.5T186 645m174 0q-12 0-20.5 8.5T331 674t8.5 20.5T360 703t20.5-8.5T389 674t-8.5-20.5T360 645M90 0v560h363v-26H117V307h270v-26H117V26h341V0z" horiz-adv-x="513" unicode="ë"/><glyph d="m33 762 99-148h-30L6 752zM90 0v560h27V0z" unicode="ì"/><glyph d="M97 614H67l99 148 27-10zM90 0v560h27V0z" unicode="í"/><glyph d="m205 644-17-18-84 92-84-91-17 18 101 110zM90 0v560h27V0z" unicode="î"/><glyph d="M57 645q-11 0-19.5 8.5T29 674t8.5 20.5T57 703q12 0 20.5-8.5T86 674t-8.5-20.5T57 645m94 0q-12 0-20.5 8.5T122 674t8.5 20.5T151 703t20.5-8.5T180 674t-8.5-20.5T151 645M90 0v560h27V0z" unicode="ï"/><glyph d="M90 560h170q138 0 222.5-76.5T567 278q0-128-83-203T268 0H90v281H12v26h78zm27-534h150q120 0 196.5 66.5T540 278q0 120-77 188t-204 68H117V307h198v-26H117z" horiz-adv-x="612" unicode="ð"/><glyph d="m407 699 11-22q-23-30-61-30-25 0-61.5 18.5T237 684q-33 0-50-29l-11 22q24 34 62 34 24 0 59.5-18.5T358 674q8 0 14.5 1.5t11 3 8.5 5 6 5 5 5.5 4 5M523 0h-26L116 521h-1v-4q0-4 .5-10.5t.5-15.5v-21l.5-24 .5-27V0H90v560h27L497 44h1v4q0 4-.5 10.5t-.5 15v20l-.5 24-.5 26.5v416h27z" horiz-adv-x="613" unicode="ñ"/><glyph d="m264 762 99-148h-30l-96 138zM45 279q0 126 83.5 209T333 571t205-83.5T622 279 538 71 333-12 128.5 71 45 279m27 0q0-116 75-190.5T333 14t186.5 74.5T595 279q0 117-75.5 191.5T333 545t-186-74.5T72 279" horiz-adv-x="667" unicode="ò"/><glyph d="M328 614h-30l99 148 27-10zM45 279q0 126 83.5 209T333 571t205-83.5T622 279 538 71 333-12 128.5 71 45 279m27 0q0-116 75-190.5T333 14t186.5 74.5T595 279q0 117-75.5 191.5T333 545t-186-74.5T72 279" horiz-adv-x="667" unicode="ó"/><glyph d="m455 644-17-18-103 96-104-95-17 18 121 110zM45 279q0 126 83.5 209T333 571t205-83.5T622 279 538 71 333-12 128.5 71 45 279m27 0q0-116 75-190.5T333 14t186.5 74.5T595 279q0 117-75.5 191.5T333 545t-186-74.5T72 279" horiz-adv-x="667" unicode="ô"/><glyph d="m440 699 11-22q-23-30-61-30-25 0-61.5 18.5T270 684q-33 0-50-29l-11 22q24 34 62 34 24 0 59.5-18.5T391 674q8 0 14.5 1.5t11 3 8.5 5 6 5 5 5.5 4 5M45 279q0 126 83.5 209T333 571t205-83.5T622 279 538 71 333-12 128.5 71 45 279m27 0q0-116 75-190.5T333 14t186.5 74.5T595 279q0 117-75.5 191.5T333 545t-186-74.5T72 279" horiz-adv-x="667" unicode="õ"/><glyph d="M248 645q-11 0-19.5 8.5T220 674t8.5 20.5T248 703q12 0 20.5-8.5T277 674t-8.5-20.5T248 645m174 0q-12 0-20.5 8.5T393 674t8.5 20.5T422 703t20.5-8.5T451 674t-8.5-20.5T422 645M45 279q0 126 83.5 209T333 571t205-83.5T622 279 538 71 333-12 128.5 71 45 279m27 0q0-116 75-190.5T333 14t186.5 74.5T595 279q0 117-75.5 191.5T333 545t-186-74.5T72 279" horiz-adv-x="667" unicode="ö"/><glyph d="M334 440q-16 0-25 9.5t-9 23.5 9.5 23 24.5 9q16 0 25-9.5t9-22.5q0-15-9-24t-25-9m181-159H152v26h363zM334 88q-16 0-25 9.5t-9 23.5 9.5 23 24.5 9q16 0 25-9.5t9-22.5q0-15-9-24t-25-9" horiz-adv-x="668" unicode="÷"/><glyph d="m583 584-62-80q101-85 101-225 0-125-84-208T333-12q-97 0-171 55L98-39 79-24l64 82q-98 85-98 221 0 126 83.5 209T333 571q94 0 168-52l63 80zM72 279q0-125 86-201l328 420q-67 47-153 47-111 0-186-74.5T72 279M333 14q111 0 186.5 74.5T595 279q0 128-90 205L177 63q68-49 156-49" horiz-adv-x="667" unicode="ø"/><glyph d="m229 762 99-148h-30l-96 138zm287-202V221q0-233-219-233Q80-12 80 221v339h27V218q0-204 191-204t191 204v342z" horiz-adv-x="596" unicode="ù"/><glyph d="M293 614h-30l99 148 27-10zm223-54V221q0-233-219-233Q80-12 80 221v339h27V218q0-204 191-204t191 204v342z" horiz-adv-x="596" unicode="ú"/><glyph d="m420 644-17-18-103 96-104-95-17 18 121 110zm96-84V221q0-233-219-233Q80-12 80 221v339h27V218q0-204 191-204t191 204v342z" horiz-adv-x="596" unicode="û"/><glyph d="M213 645q-11 0-19.5 8.5T185 674t8.5 20.5T213 703q12 0 20.5-8.5T242 674t-8.5-20.5T213 645m174 0q-12 0-20.5 8.5T358 674t8.5 20.5T387 703t20.5-8.5T416 674t-8.5-20.5T387 645m129-85V221q0-233-219-233Q80-12 80 221v339h27V218q0-204 191-204t191 204v342z" horiz-adv-x="596" unicode="ü"/><glyph d="M250 614h-30l99 148 27-10zM268 0h-27v256L20 560h32l110-152 92-126h1q3 3 94 127l109 151h31L268 256z" horiz-adv-x="509" unicode="ý"/><glyph d="M117 425h90q102 0 152.5-33T410 286t-50.5-105.5T207 148h-90V0H90v560h27zm0-251h90q92 0 134 25t42 87-43 87.5T207 399h-90z" horiz-adv-x="440" unicode="þ"/><glyph d="M170 645q-11 0-19.5 8.5T142 674t8.5 20.5T170 703q12 0 20.5-8.5T199 674t-8.5-20.5T170 645m174 0q-12 0-20.5 8.5T315 674t8.5 20.5T344 703t20.5-8.5T373 674t-8.5-20.5T344 645M268 0h-27v256L20 560h32l110-152 92-126h1q3 3 94 127l109 151h31L268 256z" horiz-adv-x="509" unicode="ÿ"/><glyph d="M501 674V385h336v-26H501V26h419V0H479q-28-4-71-4-162 0-262.5 98T45 350t100.5 256T409 704q27 0 65-4h446v-26zM72 351q0-151 92-240t244-89q29 0 66 5v646q-35 5-66 5-153 0-244.5-88T72 351" horiz-adv-x="980" unicode="Œ"/><glyph d="M766 26V0H398q-27-3-58-3-131 0-213 78.5T45 280t82 204.5T341 563q33 0 58-3h362v-26H425V307h270v-26H425V26zm-425-3q33 0 57 4v506q-25 4-57 4-122 0-195.5-69T72 281t74-188 195-70" horiz-adv-x="826" unicode="œ"/><glyph d="M226 785q-11 0-19.5 8.5T198 814t8.5 20.5T226 843q12 0 20.5-8.5T255 814t-8.5-20.5T226 785m174 0q-12 0-20.5 8.5T371 814t8.5 20.5T400 843t20.5-8.5T429 814t-8.5-20.5T400 785m-76-463V0h-27v322L20 700h32l187-255 72-97h1l8 11q8 11 25 34.5t35 48.5l190 258h32z" horiz-adv-x="622" unicode="Ÿ"/><glyph d="m370 784-17-18-103 96-104-95-17 18 121 110z" horiz-adv-x="500" unicode="ˆ"/><glyph d="m359 839 11-22q-22-30-61-30-25 0-61.5 18.5T189 824q-33 0-50-29l-11 22q24 34 62 34 24 0 59.5-18.5T310 814q8 0 14.5 1.5t11 3 8.5 5 6 5 5 5.5 4 5" horiz-adv-x="500" unicode="˜"/><glyph horiz-adv-x="451"/><glyph horiz-adv-x="902"/><glyph horiz-adv-x="451"/><glyph horiz-adv-x="902"/><glyph horiz-adv-x="300"/><glyph horiz-adv-x="225"/><glyph horiz-adv-x="150"/><glyph horiz-adv-x="150"/><glyph horiz-adv-x="112"/><glyph horiz-adv-x="180"/><glyph horiz-adv-x="50"/><glyph d="M475 281H112v26h363z" horiz-adv-x="588" unicode="‐"/><glyph d="M475 281H112v26h363z" horiz-adv-x="588" unicode="‑"/><glyph d="M475 281H112v26h363z" horiz-adv-x="588" unicode="‒"/><glyph d="M555 281H112v26h443z" horiz-adv-x="668" unicode="–"/><glyph d="M916 281H112v26h804z" horiz-adv-x="1029" unicode="—"/><glyph d="M81 615q17 4 28-4t11-24q0-32-34-32-35 0-35 42 0 30 19.5 66.5T124 713l14-19q-23-9-40-34.5T81 615" horiz-adv-x="186" unicode="‘"/><glyph d="M105 652q-17-4-28 4t-11 24q0 32 34 32 35 0 35-42 0-30-19.5-66.5T62 554l-14 19q23 9 40 34.5t17 44.5" horiz-adv-x="186" unicode="’"/><glyph d="M105-13q-17-4-28 4T66 15q0 32 34 32 35 0 35-42 0-30-19.5-66.5T62-111L48-92q23 9 40 34.5T105-13" horiz-adv-x="186" unicode="‚"/><glyph d="M78 615q17 4 28-4t11-24q0-32-34-32-35 0-35 42 0 30 19.5 66.5T121 713l14-19q-23-9-40-34.5T78 615m154 0q17 4 28-4t11-24q0-32-34-32-35 0-35 42 0 30 19.5 66.5T275 713l14-19q-23-9-40-34.5T232 615" horiz-adv-x="340" unicode="“"/><glyph d="M105 652q-17-4-28 4t-11 24q0 32 34 32 35 0 35-42 0-30-19.5-66.5T62 554l-14 19q23 9 40 34.5t17 44.5m154 0q-17-4-28 4t-11 24q0 32 34 32 35 0 35-42 0-30-19.5-66.5T216 554l-14 19q23 9 40 34.5t17 44.5" horiz-adv-x="340" unicode="”"/><glyph d="M105-13q-17-4-28 4T66 15q0 32 34 32 35 0 35-42 0-30-19.5-66.5T62-111L48-92q23 9 40 34.5T105-13m132 0q-17-4-28 4t-11 24q0 32 34 32 35 0 35-42 0-30-19.5-66.5T194-111l-14 19q23 9 40 34.5T237-13" horiz-adv-x="318" unicode="„"/><glyph d="M152 223q-26 0-44 18t-18 44 18 44 44 18 44-18 18-44-18-44-44-18" horiz-adv-x="304" unicode="•"/><glyph d="M87-11q-28 0-28 27 0 26 28 26 13 0 20.5-7.5T115 16q0-12-7.5-19.5T87-11m230 0q-28 0-28 27 0 26 28 26 13 0 20.5-7.5T345 16q0-12-7.5-19.5T317-11m240 0q-28 0-28 27 0 26 28 26 13 0 20.5-7.5T585 16q0-12-7.5-19.5T557-11" horiz-adv-x="643" unicode="…"/><glyph horiz-adv-x="180"/><glyph d="m295 511 19-18L96 278v-2L314 61l-19-18L60 277z" horiz-adv-x="374" unicode="‹"/><glyph d="M79 43 60 61l218 215v2L60 493l19 18 235-234z" horiz-adv-x="374" unicode="›"/><glyph horiz-adv-x="225"/><glyph d="m531 137 25-8Q503-12 339-12q-107 0-169.5 62T94 223H45v26h47q-1 11-1 34l1 26H45v26h49q11 111 71.5 173.5T332 571q84 0 143.5-38.5T550 423l-25-7q-12 50-57.5 89.5T335 545q-97 0-150.5-55.5T121 335h224v-26H119l-1-26q0-23 1-34h226v-26H121q12-100 67-154t153-54q142 0 190 122" horiz-adv-x="611" unicode="€"/><glyph d="M295 700v-25H180V375h-26v300H40v25zm376-325h-27v236.5l.5 24.5.5 19.5V674h-1l-4-10q-5-11-13.5-28.5T610 603l-79-153h-27l-79 153q-8 15-17 32.5T394 664l-5 10h-1v-38l.5-24.5.5-26.5V375h-27v325h42l88-175 25-50h1q1 1 25 49l88 176h40z" horiz-adv-x="761" unicode="™"/></font>
</defs>
</svg>
