<svg xmlns="http://www.w3.org/2000/svg" width="666.667" height="666.667" version="1.0" viewBox="0 0 500 500"><path d="M305.5 7.8c-9.4 3.2-15.2 6.4-21.7 12.2-5.9 5.2-13.7 16.8-16.2 24l-1.8 5.5-17.7.1c-33 .1-63.2 7.3-91.1 21.5-51.5 26.1-89.7 71.8-105.4 125.7-12.4 42.8-11.2 87.1 3.5 128.9 8.5 24 22.8 47.9 39.9 66.6l6.2 6.7-4.1 7.9c-9.4 18.1-9.6 38.7-.4 56.5 7.3 14.1 22.3 26 37.9 30.1 7.5 1.9 23.3 1.9 30.8 0 15.1-4 30.4-15.9 37.4-29.3 1.8-3.4 3.6-6.2 4-6.2s4.8.8 9.7 1.7c7 1.4 14.5 1.8 33.5 1.8 27.6 0 37.5-1.4 59.5-8 35.6-10.8 63.4-28 90-55.6 24-25 39.8-52 49-83.9 19.1-66.1 5-135.6-38.2-189-6.1-7.5-21.5-22.9-28.6-28.6l-3.7-3 2.4-6.1c9.3-22.7 3.8-48.3-13.9-65.8C355.1 10.3 341.5 5 324.1 5c-8.9 0-11.9.5-18.6 2.8m33.7 24.4c18.7 8.7 26.2 29.2 17.4 48.3-3.2 7.1-9.4 13-17.4 16.8-6.1 2.8-7.6 3.1-15.7 3l-9-.1-4.8 14.1c-2.7 7.8-8.2 23.8-12.3 35.6s-7.2 21.7-6.9 22 8.1-.7 17.2-2.2 16.7-2.6 16.9-2.4c.3.2-28.3 47.3-43.8 72.2-3.1 4.9-5.3 9.1-4.8 9.3s9.5-1.8 20-4.3c10.6-2.6 19.3-4.5 19.5-4.3s-4.2 5.7-9.8 12.4C287.1 274.7 227.9 345 202 375.8c-14 16.7-25.9 30.9-26.4 31.7-.7.9 0 2.5 2.2 5.3 5.9 7.4 7.6 12.7 7.6 22.7 0 7.9-.3 9.7-2.9 14.9-9.8 20.5-35.2 26.9-53.7 13.7-25.3-18.2-15.9-58.5 15-64.1 5.9-1 13.4-.4 18.3 1.5 1.2.4 2.3-1 4.7-6.2 1.7-3.7 10.7-23.7 20.1-44.3s17.1-37.7 17.1-38.1c0-.6-13.6 2.8-30.2 7.6-4.3 1.2-7.8 2.1-7.8 1.9 0-.1 3.3-4.9 7.3-10.6 20.2-28.4 55.8-80 55.5-80.3-.2-.2-9 1.8-19.5 4.4l-19.2 4.8 16.8-22.1c24-31.7 92.5-122.7 93.4-124.3.5-.9-.4-2.8-2.6-5.6-7-8.5-8.2-12.1-8.2-23.7 0-8.6.4-11.3 2.1-15.1 4-8.6 12.3-15.9 22.2-19.6 6.1-2.2 18.6-1.3 25.4 1.9"/></svg>